<?xml version="1.0" encoding="UTF-8"?>
<svg version="1.1" xmlns="http://www.w3.org/2000/svg" width="500" height="500">
<path d="M0 0 C1.62890625 0.9375 1.62890625 0.9375 3.81640625 3.3125 C4.19794947 7.63665645 3.49551839 10.99502699 2.06640625 15.0625 C1.7415625 16.00609375 1.41671875 16.9496875 1.08203125 17.921875 C-0.26567264 21.53239037 -1.692038 25.10522714 -3.13085938 28.68017578 C-5.9095993 35.62831444 -8.54266965 42.63330429 -11.17431641 49.63818359 C-11.82689026 51.36733066 -12.48504564 53.09438607 -13.14990234 54.81884766 C-14.03024634 57.10307179 -14.8904625 59.39392576 -15.74609375 61.6875 C-16.0095459 62.35789307 -16.27299805 63.02828613 -16.54443359 63.71899414 C-18.24535169 68.37032829 -18.52576121 71.54601936 -17.18359375 76.3125 C-15.81311541 78.78213681 -14.32179901 81.15194578 -12.81005859 83.53759766 C-9.93980474 88.4345213 -8.02447698 93.71228021 -5.99609375 99 C-5.14909716 101.17083041 -4.30145831 103.34141036 -3.453125 105.51171875 C-3.06116943 106.52081299 -2.66921387 107.52990723 -2.26538086 108.56958008 C-0.97192964 111.84918388 0.41358596 115.07845322 1.81640625 118.3125 C2.38382444 119.789787 2.94676071 121.26880821 3.50390625 122.75 C7.8254675 133.51282366 12.62881146 143.73426745 20.34765625 152.4921875 C21.81640625 154.3125 21.81640625 154.3125 21.81640625 156.3125 C22.47640625 156.3125 23.13640625 156.3125 23.81640625 156.3125 C23.81640625 156.9725 23.81640625 157.6325 23.81640625 158.3125 C24.43515625 158.621875 25.05390625 158.93125 25.69140625 159.25 C27.06640625 159.9375 28.44140625 160.625 29.81640625 161.3125 C29.81640625 161.9725 29.81640625 162.6325 29.81640625 163.3125 C30.88568359 163.73015625 30.88568359 163.73015625 31.9765625 164.15625 C33.81503078 164.90478729 35.63755206 165.69431445 37.4375 166.53125 C44.29360462 169.6502546 50.36550801 171.02614829 57.8828125 171.5625 C60.81640625 172.3125 60.81640625 172.3125 62.71875 174.875 C63.08097656 175.679375 63.44320312 176.48375 63.81640625 177.3125 C63.15640625 178.3025 62.49640625 179.2925 61.81640625 180.3125 C49.3022049 182.60004218 36.7855763 177.2979483 26.55664062 170.54833984 C20.26863652 166.08286891 13.16135645 160.87905444 10.81640625 153.3125 C10.15640625 153.3125 9.49640625 153.3125 8.81640625 153.3125 C-1.95368144 140.22104002 -6.8751642 121.99685403 -12.81640625 106.40625 C-14.52375577 101.95551015 -16.32356977 97.61614289 -18.37109375 93.3125 C-20.09163706 89.68074631 -21.73013025 86.05981823 -23.18359375 82.3125 C-23.84359375 82.3125 -24.50359375 82.3125 -25.18359375 82.3125 C-25.36535156 83.01375 -25.54710937 83.715 -25.734375 84.4375 C-25.98574219 85.38625 -26.23710937 86.335 -26.49609375 87.3125 C-26.73972656 88.240625 -26.98335938 89.16875 -27.234375 90.125 C-28.15302467 93.20984827 -29.22043216 96.17957255 -30.36938477 99.18359375 C-31.19618083 101.34541135 -31.99954243 103.51465497 -32.796875 105.6875 C-33.07208984 106.43636475 -33.34730469 107.18522949 -33.63085938 107.95678711 C-33.91638672 108.73417236 -34.20191406 109.51155762 -34.49609375 110.3125 C-36.44751769 115.62270409 -38.40966607 120.92800976 -40.41482544 126.21817017 C-42.82035043 132.57589508 -45.12836092 138.95822957 -47.359375 145.37890625 C-49.95597331 152.82439821 -52.57897402 160.25998807 -55.2265625 167.6875 C-55.56640167 168.64125015 -55.90624084 169.59500031 -56.25637817 170.57765198 C-57.64680733 174.478691 -59.03799595 178.37945769 -60.43041992 182.27978516 C-61.46771806 185.18613864 -62.50386461 188.09289781 -63.5390625 191 C-63.86687714 191.92055176 -64.19469177 192.84110352 -64.53244019 193.78955078 C-66.21522355 198.5309618 -67.85621409 203.28078378 -69.421875 208.0625 C-70.84211147 212.39922425 -72.48263083 216.60313984 -74.21044922 220.82519531 C-76.28081864 226.11694737 -77.92063818 231.56654128 -79.62695312 236.984375 C-79.91505859 237.87382812 -80.20316406 238.76328125 -80.5 239.6796875 C-80.87813843 240.87247314 -80.87813843 240.87247314 -81.26391602 242.08935547 C-82.28298594 244.55276156 -83.38657186 246.34235781 -85.18359375 248.3125 C-88.25 248.7734375 -88.25 248.7734375 -91.74609375 248.6875 C-92.90238281 248.67460937 -94.05867188 248.66171875 -95.25 248.6484375 C-98.18359375 248.3125 -98.18359375 248.3125 -100.18359375 246.3125 C-99.82453089 241.51953838 -98.64680665 237.28763493 -97.0390625 232.77734375 C-96.60916016 231.55466797 -96.17925781 230.33199219 -95.73632812 229.07226562 C-95.28179716 227.79798178 -94.82671752 226.52389352 -94.37109375 225.25 C-91.78038279 217.96481427 -89.24282301 210.71020584 -87.171875 203.2578125 C-85.18296326 196.12142322 -82.72288944 189.20626228 -80.18359375 182.25 C-75.93675616 170.4869586 -71.94914454 158.65559481 -68.12109375 146.75 C-67.87098541 145.97236298 -67.62087708 145.19472595 -67.3631897 144.39352417 C-66.36274048 141.28207827 -65.362348 138.17061426 -64.3625946 135.0589447 C-61.91706655 127.4595009 -59.40357497 119.88334145 -56.87109375 112.3125 C-56.25983643 110.48368286 -56.25983643 110.48368286 -55.63623047 108.61791992 C-54.13439615 104.12929496 -52.62953408 99.64168988 -51.12402344 95.15429688 C-50.46532617 93.1902971 -49.8071773 91.22611328 -49.1496582 89.26171875 C-48.57675533 87.55028557 -48.0025337 85.83929281 -47.42651367 84.12890625 C-45.78906108 79.23782756 -44.27192393 74.32247457 -42.82983398 69.37011719 C-42.18359375 67.3125 -42.18359375 67.3125 -41.18359375 65.3125 C-41.81007813 65.60125 -42.4365625 65.89 -43.08203125 66.1875 C-44.30792969 66.744375 -44.30792969 66.744375 -45.55859375 67.3125 C-46.77675781 67.869375 -46.77675781 67.869375 -48.01953125 68.4375 C-50.18359375 69.3125 -50.18359375 69.3125 -52.18359375 69.3125 C-52.18359375 69.9725 -52.18359375 70.6325 -52.18359375 71.3125 C-52.910625 71.87839844 -53.63765625 72.44429688 -54.38671875 73.02734375 C-57.55103382 75.61271291 -59.6871546 78.51290504 -61.93359375 81.875 C-62.33191406 82.45185547 -62.73023438 83.02871094 -63.140625 83.62304688 C-64.87381631 86.16995682 -66.204351 88.37477176 -67.18359375 91.3125 C-67.84359375 91.3125 -68.50359375 91.3125 -69.18359375 91.3125 C-69.31857773 91.89831848 -69.45356171 92.48413696 -69.59263611 93.08770752 C-70.52858144 96.61128348 -72.05466992 99.89596868 -73.5 103.234375 C-73.83474838 104.01202209 -74.16949677 104.78966919 -74.51438904 105.59088135 C-75.22653051 107.24241693 -75.9402819 108.89325911 -76.65551758 110.54345703 C-77.72322183 113.0096698 -78.78284411 115.47923809 -79.84179688 117.94921875 C-83.20597423 125.75620398 -86.6653707 133.501586 -90.4375 141.12109375 C-90.74974014 141.75702454 -91.06198029 142.39295532 -91.38368225 143.04815674 C-94.36795231 148.97142286 -98.1168751 154.09068052 -102.18359375 159.3125 C-102.84359375 160.3025 -103.50359375 161.2925 -104.18359375 162.3125 C-104.84359375 162.3125 -105.50359375 162.3125 -106.18359375 162.3125 C-106.18359375 162.9725 -106.18359375 163.6325 -106.18359375 164.3125 C-106.84359375 164.3125 -107.50359375 164.3125 -108.18359375 164.3125 C-108.18359375 164.9725 -108.18359375 165.6325 -108.18359375 166.3125 C-108.84359375 166.3125 -109.50359375 166.3125 -110.18359375 166.3125 C-110.18359375 166.9725 -110.18359375 167.6325 -110.18359375 168.3125 C-120.61001351 176.36026887 -131.39974544 180.52714703 -144.49609375 180.375 C-145.23666016 180.37048828 -145.97722656 180.36597656 -146.74023438 180.36132812 C-148.55472274 180.34962175 -150.36916909 180.33168898 -152.18359375 180.3125 C-153.4923848 175.91020284 -153.4923848 175.91020284 -152.2734375 173.55078125 C-148.993763 171.60749748 -145.46618631 171.72237403 -141.74609375 171.5 C-133.26269175 170.80645274 -127.55187311 168.63270482 -120.18359375 164.3125 C-119.19359375 163.9825 -118.20359375 163.6525 -117.18359375 163.3125 C-117.18359375 162.6525 -117.18359375 161.9925 -117.18359375 161.3125 C-116.07161535 160.35504721 -114.91643135 159.44766762 -113.74609375 158.5625 C-102.13694452 148.67626338 -94.64286652 131.67726463 -89.47265625 117.734375 C-83.1839571 101.04073724 -75.32000349 80.82336642 -62.18359375 68.3125 C-61.52359375 68.3125 -60.86359375 68.3125 -60.18359375 68.3125 C-60.18359375 67.6525 -60.18359375 66.9925 -60.18359375 66.3125 C-53.34382236 60.71908695 -47.08277264 57.95653284 -38.18359375 58.3125 C-37.96207642 57.4455249 -37.96207642 57.4455249 -37.73608398 56.56103516 C-35.47853307 47.99835728 -32.78247403 39.58898657 -30.05004883 31.16894531 C-29.24601825 28.68726696 -28.45000626 26.20310704 -27.65429688 23.71875 C-20.74739005 2.28281808 -20.74739005 2.28281808 -17.25561523 0.11621094 C-12.1227794 -1.87475119 -5.21375577 -1.64154028 0 0 Z " fill="#0B8BF9" transform="translate(295.18359375,119.6875)"/>
<path d="M0 0 C0.99 0.33 1.98 0.66 3 1 C3 1.66 3 2.32 3 3 C3.66 3 4.32 3 5 3 C7.46833917 6.70250875 7.679512 9.70451345 7 14 C5.125 17.5 5.125 17.5 3 20 C2.34 20 1.68 20 1 20 C0.7628125 20.56203125 0.525625 21.1240625 0.28125 21.703125 C-1.28947697 24.51894042 -3.21471464 26.47955416 -5.5 28.75 C-6.2940625 29.54921875 -7.088125 30.3484375 -7.90625 31.171875 C-10 33 -10 33 -12 33 C-12 33.66 -12 34.32 -12 35 C-12.66 35 -13.32 35 -14 35 C-14.38671875 35.87398437 -14.38671875 35.87398437 -14.78125 36.765625 C-16.09834017 39.1802903 -17.55088384 40.81740177 -19.5 42.75 C-20.1084375 43.36359375 -20.716875 43.9771875 -21.34375 44.609375 C-23 46 -23 46 -25 46 C-25 46.66 -25 47.32 -25 48 C-25.66 48 -26.32 48 -27 48 C-27.268125 48.598125 -27.53625 49.19625 -27.8125 49.8125 C-28.99917406 51.99847854 -30.09599113 53.41332594 -32 55 C-32.66 55 -33.32 55 -34 55 C-34 55.66 -34 56.32 -34 57 C-34.66 57 -35.32 57 -36 57 C-36 57.66 -36 58.32 -36 59 C-36.66 59 -37.32 59 -38 59 C-38 59.66 -38 60.32 -38 61 C-39.35546875 62.33203125 -39.35546875 62.33203125 -41.1875 63.8125 C-44.30237295 66.3946482 -47.17375061 69.09937562 -50 72 C-53.14183469 75.18998541 -56.35580271 78.28706412 -59.609375 81.36328125 C-61.32335879 83.01256149 -63.03688842 84.66231381 -64.75 86.3125 C-65.62527344 87.12912109 -66.50054687 87.94574219 -67.40234375 88.78710938 C-72.71694667 93.77257074 -72.71694667 93.77257074 -75.23046875 100.39453125 C-75.01401067 104.46048525 -75.01401067 104.46048525 -72.5625 107.375 C-70 110 -70 110 -70 112 C-69.34 112 -68.68 112 -68 112 C-68 112.66 -68 113.32 -68 114 C-67.34 114 -66.68 114 -66 114 C-66 114.66 -66 115.32 -66 116 C-65.40525879 116.26353271 -64.81051758 116.52706543 -64.19775391 116.79858398 C-61.90518321 118.0518322 -60.57200819 119.28702776 -58.8359375 121.22265625 C-58.27132812 121.84333984 -57.70671875 122.46402344 -57.125 123.10351562 C-56.5475 123.74998047 -55.97 124.39644531 -55.375 125.0625 C-54.21873181 126.34738392 -53.05999168 127.63004895 -51.8984375 128.91015625 C-51.38974121 129.47871338 -50.88104492 130.04727051 -50.35693359 130.63305664 C-49.02457082 132.12092786 -49.02457082 132.12092786 -47 133 C-47 133.66 -47 134.32 -47 135 C-46.34 135 -45.68 135 -45 135 C-43.74584961 136.27978516 -43.74584961 136.27978516 -42.21484375 138.1640625 C-38.86325817 142.10741105 -35.30786002 145.76532883 -31.62890625 149.3984375 C-31.05812347 149.96355042 -30.4873407 150.52866333 -29.89926147 151.11090088 C-27.51156601 153.47151011 -25.11976026 155.82787712 -22.72387695 158.18017578 C-20.95874547 159.91529364 -19.19973315 161.65642841 -17.44140625 163.3984375 C-16.89464737 163.93173676 -16.34788849 164.46503601 -15.78456116 165.01449585 C-14.48471482 166.30552223 -13.23678457 167.64844033 -12 169 C-12 169.66 -12 170.32 -12 171 C-11.15695313 171.35578125 -11.15695313 171.35578125 -10.296875 171.71875 C-7.48105958 173.28947697 -5.52044584 175.21471464 -3.25 177.5 C-2.45078125 178.2940625 -1.6515625 179.088125 -0.828125 179.90625 C1 182 1 182 1 184 C1.66 184 2.32 184 3 184 C3 184.66 3 185.32 3 186 C3.66 186 4.32 186 5 186 C7.10958512 189.42807582 7.55884699 192.00823581 7 196 C5.17452064 198.92483867 3.13141589 201.43429205 0 203 C-5.43079106 203.30171061 -8.6196739 203.04027951 -12.75 199.5 C-14 198 -14 198 -14 196 C-14.66 196 -15.32 196 -16 196 C-16 195.34 -16 194.68 -16 194 C-16.66 194 -17.32 194 -18 194 C-18 193.34 -18 192.68 -18 192 C-18.66 192 -19.32 192 -20 192 C-20 191.34 -20 190.68 -20 190 C-20.66 190 -21.32 190 -22 190 C-22 189.34 -22 188.68 -22 188 C-22.66 188 -23.32 188 -24 188 C-25.68732277 186.01739574 -27.35366057 184.0167658 -29 182 C-29.66 181.67 -30.32 181.34 -31 181 C-31 180.34 -31 179.68 -31 179 C-31.66 179 -32.32 179 -33 179 C-34.4453125 177.49609375 -34.4453125 177.49609375 -36.125 175.4375 C-38.59014761 172.52739836 -41.0836023 169.95680973 -44 167.5 C-46.61023353 165.29369265 -48.90243573 163.05458787 -51.09643555 160.43652344 C-55.17853874 155.70961387 -59.57089618 151.32970132 -64.0127964 146.94260406 C-65.49117138 145.48189278 -66.96574069 144.01743204 -68.43937683 142.55194092 C-72.62347933 138.39207181 -76.81342597 134.23812442 -81.00756836 130.08837891 C-83.58750385 127.53523792 -86.1625354 124.97723496 -88.73462486 122.4161911 C-89.71073415 121.44627382 -90.68873484 120.47825606 -91.66868019 119.51221466 C-93.03472629 118.16541004 -94.39410242 116.81185031 -95.75317383 115.45800781 C-96.52703934 114.69159973 -97.30090485 113.92519165 -98.09822083 113.13555908 C-101.56244981 109.24548301 -102.30919112 106.29757791 -102.375 101.125 C-102.40335938 100.11695313 -102.43171875 99.10890625 -102.4609375 98.0703125 C-101.38845543 90.92649124 -95.28614453 86.00978808 -90.37329102 81.14624023 C-89.6102063 80.38286346 -88.84712158 79.61948669 -88.06091309 78.83297729 C-85.54662423 76.32007742 -83.02533093 73.8143318 -80.50390625 71.30859375 C-78.74996474 69.55838569 -76.99646673 67.80773309 -75.24339294 66.05665588 C-70.63179791 61.45268599 -66.01423232 56.85475 -61.39538574 52.25805664 C-56.70205124 47.58514816 -52.01433682 42.90660951 -47.32617188 38.22851562 C-39.75159546 30.67151181 -32.1735607 23.11799683 -24.59111023 15.56889343 C-21.0567614 12.04988739 -17.52509288 8.52828432 -14 5 C-9.1038915 0.1038915 -6.65861849 -0.65494608 0 0 Z " fill="#0E8CF9" transform="translate(152,148)"/>
<path d="M0 0 C3.32729934 1.98397973 6.28989797 4.22716413 9 7 C9 7.66 9 8.32 9 9 C9.66 9 10.32 9 11 9 C11 9.66 11 10.32 11 11 C11.66 11 12.32 11 13 11 C13 11.66 13 12.32 13 13 C13.99 13.33 14.98 13.66 16 14 C16 14.66 16 15.32 16 16 C16.66 16 17.32 16 18 16 C18 16.66 18 17.32 18 18 C18.66 18 19.32 18 20 18 C20 18.66 20 19.32 20 20 C20.66 20 21.32 20 22 20 C23.625 21.375 23.625 21.375 25 23 C25 23.66 25 24.32 25 25 C25.66 25 26.32 25 27 25 C28.48046875 26.5390625 28.48046875 26.5390625 30.1875 28.625 C33.02626268 31.97721872 35.97551078 34.77204817 39.36328125 37.55078125 C41.03468263 39.03070944 42.40871384 40.57937985 43.8125 42.3125 C45.71869511 45.03075197 45.71869511 45.03075197 48 46 C48 46.66 48 47.32 48 48 C48.66 48 49.32 48 50 48 C50 48.66 50 49.32 50 50 C50.66 50 51.32 50 52 50 C52 50.66 52 51.32 52 52 C53.485 52.495 53.485 52.495 55 53 C55 53.66 55 54.32 55 55 C55.66 55 56.32 55 57 55 C57 55.66 57 56.32 57 57 C57.66 57 58.32 57 59 57 C59 57.66 59 58.32 59 59 C59.66 59 60.32 59 61 59 C62.55078125 60.609375 62.55078125 60.609375 64.3125 62.75 C66.99951837 65.92101547 69.73508184 68.42243303 73 71 C73.91685328 72.04441547 74.81218691 73.10803226 75.6875 74.1875 C77.69390251 77.01647233 77.69390251 77.01647233 80 78 C80 78.66 80 79.32 80 80 C80.66 80 81.32 80 82 80 C82 80.66 82 81.32 82 82 C82.66 82 83.32 82 84 82 C84 82.66 84 83.32 84 84 C85.485 84.495 85.485 84.495 87 85 C87 85.66 87 86.32 87 87 C87.66 87 88.32 87 89 87 C89 87.66 89 88.32 89 89 C89.66 89 90.32 89 91 89 C94.48182649 95.05535041 95.58220133 100.04047659 94.25 106.8125 C91.62815694 113.01181116 85.80804847 117.49497979 81 122 C79.32683061 123.66013847 77.66014869 125.32684074 76 127 C65 138 65 138 62.26171875 140.69921875 C59.98248961 142.90589214 59.98248961 142.90589214 58.3125 145.3125 C57.879375 145.869375 57.44625 146.42625 57 147 C56.34 147 55.68 147 55 147 C55 147.66 55 148.32 55 149 C53.625 150.625 53.625 150.625 52 152 C51.34 152 50.68 152 50 152 C50 152.66 50 153.32 50 154 C49.34 154 48.68 154 48 154 C48 154.66 48 155.32 48 156 C45.625 158.625 45.625 158.625 43 161 C42.34 161 41.68 161 41 161 C41 161.66 41 162.32 41 163 C39.50390625 164.4375 39.50390625 164.4375 37.5625 166 C34.84811762 168.14525044 34.84811762 168.14525044 33 171 C32.34 171 31.68 171 31 171 C31 171.66 31 172.32 31 173 C30.34 173 29.68 173 29 173 C28.66911377 173.81766846 28.66911377 173.81766846 28.33154297 174.65185547 C26.57303432 177.75294387 24.20556518 180.08030014 21.6953125 182.5703125 C21.17492401 183.09261444 20.65453552 183.61491638 20.11837769 184.15304565 C19.01968999 185.25309089 17.9184863 186.35062827 16.81494141 187.44580078 C15.13078583 189.11925094 13.45755824 190.80309406 11.78515625 192.48828125 C10.71418233 193.5579335 9.64258813 194.62696515 8.5703125 195.6953125 C8.07226105 196.19741241 7.57420959 196.69951233 7.06106567 197.21682739 C3.33751676 200.89082503 0.81543607 202.76466569 -4.375 203.4375 C-8.00180055 202.99978269 -10.21182779 202.32380816 -12.86328125 199.73046875 C-14.80825018 196.76957103 -15.17240807 194.34231693 -14.98828125 190.828125 C-12.9810246 185.08403877 -7.99183548 181.29911756 -3.52709961 177.36352539 C-0.1790153 174.37406881 2.93199731 171.23028917 5.6875 167.6875 C6.450625 166.800625 7.21375 165.91375 8 165 C8.66 165 9.32 165 10 165 C10 164.34 10 163.68 10 163 C10.66 163 11.32 163 12 163 C12 162.34 12 161.68 12 161 C13.65788785 159.65576661 15.32576317 158.32381517 17 157 C17.556875 156.2575 18.11375 155.515 18.6875 154.75 C19.120625 154.1725 19.55375 153.595 20 153 C20.66 153 21.32 153 22 153 C22.268125 152.360625 22.53625 151.72125 22.8125 151.0625 C24 149 24 149 27 148 C27 147.34 27 146.68 27 146 C27.66 146 28.32 146 29 146 C29 145.34 29 144.68 29 144 C29.66 144 30.32 144 31 144 C31 143.34 31 142.68 31 142 C32.375 140.375 32.375 140.375 34 139 C34.66 139 35.32 139 36 139 C36.22131592 138.4519873 36.44263184 137.90397461 36.6706543 137.33935547 C38.41370417 134.27197183 40.7633143 132.00892373 43.26953125 129.5703125 C43.78754807 129.05749725 44.30556488 128.54468201 44.83927917 128.0163269 C46.49232177 126.38104126 48.15188886 124.75259652 49.8125 123.125 C51.46155562 121.50373067 53.10906533 119.88096618 54.75358582 118.25509644 C55.774775 117.24598047 56.79862348 116.23954553 57.82563782 115.23635864 C63.84348106 109.73072284 63.84348106 109.73072284 67.5234375 102.76953125 C67.28792012 99.66442047 66.9885263 96.96557891 66 94 C65.34 93.67 64.68 93.34 64 93 C62 92 62 92 61 89 C60.34 89 59.68 89 59 89 C59 88.34 59 87.68 59 87 C58.41734375 86.7421875 57.8346875 86.484375 57.234375 86.21875 C54.8197097 84.90165983 53.18259823 83.44911616 51.25 81.5 C50.63640625 80.8915625 50.0228125 80.283125 49.390625 79.65625 C48 78 48 78 48 76 C47.34 76 46.68 76 46 76 C46 75.34 46 74.68 46 74 C45.40172394 73.72736832 44.80344788 73.45473663 44.18704224 73.17384338 C42.05481072 72.02941836 40.69433827 70.93159396 39.00732422 69.21850586 C38.45350067 68.66130356 37.89967712 68.10410126 37.32907104 67.53001404 C36.74352448 66.93100784 36.15797791 66.33200165 35.5546875 65.71484375 C34.94360138 65.09855606 34.33251526 64.48226837 33.70291138 63.8473053 C31.75545618 61.88206676 29.81483091 59.91026236 27.875 57.9375 C25.92716399 55.96205725 23.97789254 53.98808649 22.02566528 52.01698303 C20.81202071 50.79106939 19.60105915 49.56249271 18.39303589 48.33103943 C15.4854956 45.28867973 15.4854956 45.28867973 12 43 C12 42.34 12 41.68 12 41 C11.34 41 10.68 41 10 41 C10 40.34 10 39.68 10 39 C9.34 39 8.68 39 8 39 C8 38.34 8 37.68 8 37 C7.34 37 6.68 37 6 37 C4.82103702 35.87901881 3.65081487 34.74749664 2.52490234 33.57324219 C0.82862317 31.82319048 -0.9290475 30.15176651 -2.69921875 28.4765625 C-4.0288711 27.19294164 -5.35829378 25.90908283 -6.6875 24.625 C-7.36361328 23.99078125 -8.03972656 23.3565625 -8.73632812 22.703125 C-12.88236412 18.66022423 -15.15208906 15.79637476 -16 10 C-14.88735386 6.07301362 -13.875747 3.77566163 -10.8125 1.0625 C-7.03791469 -0.36345445 -3.90979284 -0.99824498 0 0 Z " fill="#0B8AFA" transform="translate(355,148)"/>
<path d="M0 0 C1.03115279 3.26913624 0.9638984 5.86041348 0.5625 9.25 C0.46066406 10.14203125 0.35882813 11.0340625 0.25390625 11.953125 C0.12822266 12.96632812 0.12822266 12.96632812 0 14 C-0.66 14 -1.32 14 -2 14 C-2.99 18.455 -2.99 18.455 -4 23 C-5.65 23 -7.3 23 -9 23 C-9 23.99 -9 24.98 -9 26 C-8.34 26 -7.68 26 -7 26 C-6.3125 27.8125 -6.3125 27.8125 -6 30 C-6.45375 30.433125 -6.9075 30.86625 -7.375 31.3125 C-9.82444794 33.85615748 -9.6204015 36.58361353 -10 40 C-10.33 40.33 -10.66 40.66 -11 41 C-11.103125 42.134375 -11.20625 43.26875 -11.3125 44.4375 C-11.539375 45.613125 -11.76625 46.78875 -12 48 C-14.04296875 49.22265625 -14.04296875 49.22265625 -16 50 C-15.40336519 47.47717364 -14.79794859 44.9569878 -14.1875 42.4375 C-14.02185547 41.73302734 -13.85621094 41.02855469 -13.68554688 40.30273438 C-12.54083058 35.61587709 -11.01178987 31.38673952 -9 27 C-9.62648438 27.28875 -10.25296875 27.5775 -10.8984375 27.875 C-11.71570313 28.24625 -12.53296875 28.6175 -13.375 29 C-14.18710938 29.37125 -14.99921875 29.7425 -15.8359375 30.125 C-18 31 -18 31 -20 31 C-20 31.66 -20 32.32 -20 33 C-20.72703125 33.56589844 -21.4540625 34.13179687 -22.203125 34.71484375 C-25.36744007 37.30021291 -27.50356085 40.20040504 -29.75 43.5625 C-30.14832031 44.13935547 -30.54664063 44.71621094 -30.95703125 45.31054688 C-32.69022256 47.85745682 -34.02075725 50.06227176 -35 53 C-35.66 53 -36.32 53 -37 53 C-37.13498398 53.58581848 -37.26996796 54.17163696 -37.40904236 54.77520752 C-38.34498769 58.29878348 -39.87107617 61.58346868 -41.31640625 64.921875 C-41.65115463 65.69952209 -41.98590302 66.47716919 -42.33079529 67.27838135 C-43.04293676 68.92991693 -43.75668815 70.58075911 -44.47192383 72.23095703 C-45.53962808 74.6971698 -46.59925036 77.16673809 -47.65820312 79.63671875 C-51.02238048 87.44370398 -54.48177695 95.189086 -58.25390625 102.80859375 C-58.72226646 103.76248993 -58.72226646 103.76248993 -59.2000885 104.73565674 C-62.18435856 110.65892286 -65.93328135 115.77818052 -70 121 C-70.66 121.99 -71.32 122.98 -72 124 C-72.66 124 -73.32 124 -74 124 C-74 124.66 -74 125.32 -74 126 C-74.66 126 -75.32 126 -76 126 C-76 126.66 -76 127.32 -76 128 C-76.66 128 -77.32 128 -78 128 C-78 128.66 -78 129.32 -78 130 C-88.42641976 138.04776887 -99.21615169 142.21464703 -112.3125 142.0625 C-113.05306641 142.05798828 -113.79363281 142.05347656 -114.55664062 142.04882812 C-116.37112899 142.03712175 -118.18557534 142.01918898 -120 142 C-121.30879105 137.59770284 -121.30879105 137.59770284 -120.08984375 135.23828125 C-116.81016925 133.29499748 -113.28259256 133.40987403 -109.5625 133.1875 C-101.079098 132.49395274 -95.36827936 130.32020482 -88 126 C-87.01 125.67 -86.02 125.34 -85 125 C-85 124.34 -85 123.68 -85 123 C-83.8880216 122.04254721 -82.7328376 121.13516762 -81.5625 120.25 C-69.95335077 110.36376338 -62.45927277 93.36476463 -57.2890625 79.421875 C-51.00036335 62.72823724 -43.13640974 42.51086642 -30 30 C-29.34 30 -28.68 30 -28 30 C-28 29.34 -28 28.68 -28 28 C-21.16022861 22.40658695 -14.89917889 19.64403284 -6 20 C-5.81824219 19.31035156 -5.63648438 18.62070313 -5.44921875 17.91015625 C-3.83165834 11.86296885 -2.05819325 5.91183168 0 0 Z " fill="#1B8EEF" transform="translate(263,158)"/>
<path d="M0 0 C0.70253906 0.00386719 1.40507812 0.00773437 2.12890625 0.01171875 C2.83144531 0.00785156 3.53398437 0.00398438 4.2578125 0 C9.50229247 0.01010497 9.50229247 0.01010497 10.62890625 1.13671875 C10.72304312 3.19228536 10.74633623 5.25112056 10.74243164 7.30883789 C10.74257767 7.95271957 10.74272369 8.59660126 10.74287415 9.25999451 C10.7421751 11.39732178 10.73438316 13.53456288 10.7265625 15.671875 C10.72469829 17.1501816 10.7232744 18.62848882 10.72227478 20.10679626 C10.71844984 24.00470677 10.70861977 27.90258024 10.6975708 31.80047607 C10.68735617 35.77518208 10.68277705 39.74989404 10.67773438 43.72460938 C10.66699747 51.52866471 10.64940087 59.33268183 10.62890625 67.13671875 C5.01890625 67.13671875 -0.59109375 67.13671875 -6.37109375 67.13671875 C-6.39364734 58.54865764 -6.41201032 49.96061939 -6.42290592 41.37253666 C-6.42813411 37.38514675 -6.43523059 33.39777808 -6.4465332 29.41040039 C-6.45736436 25.56546761 -6.46337107 21.7205553 -6.46597099 17.87560844 C-6.46782483 16.40552892 -6.47144466 14.93545057 -6.47682381 13.46537971 C-6.4840373 11.41317408 -6.48508456 9.36105408 -6.48461914 7.30883789 C-6.48683975 6.13857559 -6.48906036 4.96831329 -6.49134827 3.7625885 C-6.27678269 -0.92265149 -4.17654901 0.0080473 0 0 Z " fill="#0588FC" transform="translate(261.37109375,259.86328125)"/>
<path d="M0 0 C0.66 0 1.32 0 2 0 C2 0.99 2 1.98 2 3 C2.66 3 3.32 3 4 3 C4.66 5.97 5.32 8.94 6 12 C6.66 12 7.32 12 8 12 C8.33 13.32 8.66 14.64 9 16 C9.99 15.67 10.98 15.34 12 15 C11.649375 13.9275 11.29875 12.855 10.9375 11.75 C10.05319814 8.21279257 9.97119449 7.25188876 11 4 C11.2266333 4.56920166 11.4532666 5.13840332 11.68676758 5.72485352 C12.7277439 8.33777574 13.77011202 10.95014063 14.8125 13.5625 C15.34713867 14.90538086 15.34713867 14.90538086 15.89257812 16.27539062 C17.4430786 20.1587542 18.99856771 24.03596673 20.65625 27.875 C21.73345003 30.38011635 22.72799768 32.88662798 23.6875 35.4375 C28.00906125 46.20032366 32.81240521 56.42176745 40.53125 65.1796875 C42 67 42 67 42 69 C42.66 69 43.32 69 44 69 C44 69.66 44 70.32 44 71 C44.928125 71.4640625 44.928125 71.4640625 45.875 71.9375 C47.25 72.625 48.625 73.3125 50 74 C50 74.66 50 75.32 50 76 C50.71285156 76.2784375 51.42570312 76.556875 52.16015625 76.84375 C53.99862453 77.59228729 55.82114581 78.38181445 57.62109375 79.21875 C64.47719837 82.3377546 70.54910176 83.71364829 78.06640625 84.25 C81 85 81 85 82.90234375 87.5625 C83.26457031 88.366875 83.62679687 89.17125 84 90 C83.34 90.99 82.68 91.98 82 93 C69.48579865 95.28754218 56.96917005 89.9854483 46.74023438 83.23583984 C40.45223027 78.77036891 33.3449502 73.56655444 31 66 C30.34 66 29.68 66 29 66 C16.95619367 51.36028554 11.67735196 30.42751971 5 13 C4.47290676 11.62880993 3.94561162 10.25769742 3.41796875 8.88671875 C2.27864583 5.92447917 1.13932292 2.96223958 0 0 Z " fill="#1D92F4" transform="translate(275,207)"/>
<path d="M0 0 C5.28 0 10.56 0 16 0 C16 13.86 16 27.72 16 42 C13.13366205 43.43316898 10.62764499 43.13200361 7.4375 43.125 C5.67212891 43.12886719 5.67212891 43.12886719 3.87109375 43.1328125 C1 43 1 43 0 42 C-0.17269937 39.32144419 -0.28404889 36.6662171 -0.3515625 33.984375 C-0.37471527 33.17639465 -0.39786804 32.36841431 -0.42172241 31.53594971 C-0.46944637 29.82107002 -0.51466993 28.10611924 -0.55761719 26.39111328 C-0.62436768 23.77478423 -0.70226197 21.15895348 -0.78125 18.54296875 C-0.82619924 16.87762234 -0.87049107 15.21225803 -0.9140625 13.546875 C-0.93796051 12.76648865 -0.96185852 11.98610229 -0.98648071 11.18206787 C-1.07773907 7.19405044 -0.79167639 3.95838197 0 0 Z " fill="#138DF5" transform="translate(276,285)"/>
<path d="M0 0 C0.70253906 0.00386719 1.40507812 0.00773437 2.12890625 0.01171875 C2.83144531 0.00785156 3.53398437 0.00398438 4.2578125 0 C9.50229247 0.01010497 9.50229247 0.01010497 10.62890625 1.13671875 C12.29044165 14.78774257 8.24783923 26.44518254 3.62890625 39.13671875 C2.15059404 39.33084056 0.67121309 39.51684006 -0.80859375 39.69921875 C-2.04416016 39.85583984 -2.04416016 39.85583984 -3.3046875 40.015625 C-4.32755859 40.07556641 -4.32755859 40.07556641 -5.37109375 40.13671875 C-7.21385884 38.29395366 -6.49983786 35.70708116 -6.51004028 33.25537109 C-6.50801605 32.43246582 -6.50599182 31.60956055 -6.50390625 30.76171875 C-6.50486298 29.92205566 -6.5058197 29.08239258 -6.50680542 28.21728516 C-6.50748723 26.4384758 -6.50563292 24.65966398 -6.50146484 22.88085938 C-6.49611658 20.14838099 -6.5014098 17.41606699 -6.5078125 14.68359375 C-6.50715172 12.95963505 -6.50587056 11.23567646 -6.50390625 9.51171875 C-6.50593048 8.68881348 -6.50795471 7.8659082 -6.51004028 7.01806641 C-6.48088763 0.01248726 -6.48088763 0.01248726 0 0 Z " fill="#2598F6" transform="translate(201.37109375,287.86328125)"/>
<path d="M0 0 C1.95803507 -0.05389087 3.91648909 -0.09274217 5.875 -0.125 C7.51082031 -0.15980469 7.51082031 -0.15980469 9.1796875 -0.1953125 C12 0 12 0 14 2 C14.24291992 4.67382812 14.24291992 4.67382812 14.23046875 8.03125 C14.22853516 9.23394531 14.22660156 10.43664062 14.22460938 11.67578125 C14.20624023 13.56876953 14.20624023 13.56876953 14.1875 15.5 C14.18685547 16.76199219 14.18621094 18.02398437 14.18554688 19.32421875 C14.14023184 28.71953632 14.14023184 28.71953632 13 31 C9.12321269 32.09345283 5.72766421 31.94912456 1.77734375 31.51953125 C0.88136475 31.42389893 -0.01461426 31.3282666 -0.93774414 31.22973633 C-1.61828857 31.15392334 -2.29883301 31.07811035 -3 31 C-3.08746928 26.95847085 -3.14054982 22.91718695 -3.1875 18.875 C-3.21263672 17.73289062 -3.23777344 16.59078125 -3.26367188 15.4140625 C-3.35493909 4.9487553 -3.35493909 4.9487553 0 0 Z " fill="#1C93F5" transform="translate(238,296)"/>
<path d="M0 0 C5.28 0 10.56 0 16 0 C17.29776917 2.59553834 17.12950035 4.50705527 17.1328125 7.41015625 C17.13474609 9.01793945 17.13474609 9.01793945 17.13671875 10.65820312 C17.13285156 11.78162109 17.12898438 12.90503906 17.125 14.0625 C17.13080078 15.75342773 17.13080078 15.75342773 17.13671875 17.47851562 C17.13542969 18.54908203 17.13414062 19.61964844 17.1328125 20.72265625 C17.13168457 21.71015869 17.13055664 22.69766113 17.12939453 23.71508789 C17 26 17 26 16 27 C13.3013095 27.07325436 10.63497444 27.09222351 7.9375 27.0625 C5.318125 27.041875 2.69875 27.02125 0 27 C0 18.09 0 9.18 0 0 Z " fill="#1B8FF7" transform="translate(296,300)"/>
<path d="M0 0 C0.99 0.33 1.98 0.66 3 1 C3 2.32 3 3.64 3 5 C2.01 5.33 1.02 5.66 0 6 C-1.21869929 8.50447516 -1.21869929 8.50447516 -2 11 C-2.66 11 -3.32 11 -4 11 C-4 12.32 -4 13.64 -4 15 C-5.32 15 -6.64 15 -8 15 C-8.66 16.65 -9.32 18.3 -10 20 C-10.99 20 -11.98 20 -13 20 C-13 21.65 -13 23.3 -13 25 C-14.65 25 -16.3 25 -18 25 C-18 25.99 -18 26.98 -18 28 C-18.99 28 -19.98 28 -21 28 C-21.0928125 28.8971875 -21.0928125 28.8971875 -21.1875 29.8125 C-22.40255022 33.08378907 -23.81936645 33.53690857 -27 35 C-35.95149182 38.44166705 -44.57813977 38.31918473 -54 38 C-55.30879105 33.59770284 -55.30879105 33.59770284 -54.08984375 31.23828125 C-50.81016925 29.29499748 -47.28259256 29.40987403 -43.5625 29.1875 C-35.079098 28.49395274 -29.36827936 26.32020482 -22 22 C-21.01 21.67 -20.02 21.34 -19 21 C-19 20.34 -19 19.68 -19 19 C-9.28947368 10 -9.28947368 10 -4 10 C-3.67 7.69 -3.34 5.38 -3 3 C-2.34 3 -1.68 3 -1 3 C-0.67 2.01 -0.34 1.02 0 0 Z " fill="#5AABF0" transform="translate(197,262)"/>
<path d="M0 0 C2.47923801 -0.02685095 4.9581884 -0.04676547 7.4375 -0.0625 C8.14455078 -0.07087891 8.85160156 -0.07925781 9.58007812 -0.08789062 C11.38693559 -0.09653588 13.19387603 -0.05220011 15 0 C16 1 16 1 16.11352539 3.22485352 C16.10828857 4.18319092 16.10305176 5.14152832 16.09765625 6.12890625 C16.09443359 7.16337891 16.09121094 8.19785156 16.08789062 9.26367188 C16.07951172 10.35228516 16.07113281 11.44089844 16.0625 12.5625 C16.05798828 13.65498047 16.05347656 14.74746094 16.04882812 15.87304688 C16.03699826 18.58208495 16.02051543 21.29101599 16 24 C13.89651926 24.19504458 11.79217415 24.38078496 9.6875 24.5625 C7.92986328 24.71912109 7.92986328 24.71912109 6.13671875 24.87890625 C3 25 3 25 0 24 C-1.33257403 7.1070615 -1.33257403 7.1070615 0 0 Z " fill="#0889F9" transform="translate(176,303)"/>
<path d="M0 0 C0.70253906 0.00386719 1.40507812 0.00773437 2.12890625 0.01171875 C2.83144531 0.00785156 3.53398437 0.00398438 4.2578125 0 C9.50229247 0.01010497 9.50229247 0.01010497 10.62890625 1.13671875 C10.72304312 3.19228536 10.74633623 5.25112056 10.74243164 7.30883789 C10.74257767 7.95271957 10.74272369 8.59660126 10.74287415 9.25999451 C10.7421751 11.39732178 10.73438316 13.53456288 10.7265625 15.671875 C10.72469829 17.1501816 10.7232744 18.62848882 10.72227478 20.10679626 C10.71844984 24.00470677 10.70861977 27.90258024 10.6975708 31.80047607 C10.68735617 35.77518208 10.68277705 39.74989404 10.67773438 43.72460938 C10.66699747 51.52866471 10.64940087 59.33268183 10.62890625 67.13671875 C5.01890625 67.13671875 -0.59109375 67.13671875 -6.37109375 67.13671875 C-6.39364734 58.54865764 -6.41201032 49.96061939 -6.42290592 41.37253666 C-6.42813411 37.38514675 -6.43523059 33.39777808 -6.4465332 29.41040039 C-6.45736436 25.56546761 -6.46337107 21.7205553 -6.46597099 17.87560844 C-6.46782483 16.40552892 -6.47144466 14.93545057 -6.47682381 13.46537971 C-6.4840373 11.41317408 -6.48508456 9.36105408 -6.48461914 7.30883789 C-6.48683975 6.13857559 -6.48906036 4.96831329 -6.49134827 3.7625885 C-6.27678269 -0.92265149 -4.17654901 0.0080473 0 0 Z M-4.37109375 2.13671875 C-4.37109375 23.25671875 -4.37109375 44.37671875 -4.37109375 66.13671875 C-0.08109375 66.13671875 4.20890625 66.13671875 8.62890625 66.13671875 C8.62890625 45.34671875 8.62890625 24.55671875 8.62890625 3.13671875 C4.33890625 2.80671875 0.04890625 2.47671875 -4.37109375 2.13671875 Z " fill="#3697EA" transform="translate(261.37109375,259.86328125)"/>
<path d="M0 0 C0 1.98 0 3.96 0 6 C-0.66 6 -1.32 6 -2 6 C-2.12375 7.2375 -2.2475 8.475 -2.375 9.75 C-2.75746305 12.8762197 -3.30549523 15.28879237 -5 18 C-5.66 18 -6.32 18 -7 18 C-7.103125 18.556875 -7.20625 19.11375 -7.3125 19.6875 C-8.14178408 22.4769101 -9.34299056 24.6139064 -11 27 C-11.66 27 -12.32 27 -13 27 C-13.33 28.65 -13.66 30.3 -14 32 C-14.66 32 -15.32 32 -16 32 C-16 32.99 -16 33.98 -16 35 C-16.66 35 -17.32 35 -18 35 C-17.95875 35.94875 -17.9175 36.8975 -17.875 37.875 C-18 41 -18 41 -20 43 C-20.39764263 44.98821313 -20.73775349 46.98944339 -21 49 C-22.32 48.67 -23.64 48.34 -25 48 C-24.34 44.7 -23.68 41.4 -23 38 C-21.515 37.505 -21.515 37.505 -20 37 C-20.165 35.845 -20.33 34.69 -20.5 33.5 C-20.53207636 23.36386983 -12.35066349 10.53468549 -6 3 C-1.90909091 0 -1.90909091 0 0 0 Z " fill="#2B96F1" transform="translate(233,193)"/>
<path d="M0 0 C1.8871875 0.00773437 1.8871875 0.00773437 3.8125 0.015625 C5.070625 0.01046875 6.32875 0.0053125 7.625 0 C10.8125 0.265625 10.8125 0.265625 12.8125 2.265625 C13.11328125 4.796875 13.11328125 4.796875 13.125 7.765625 C13.14175781 8.7453125 13.15851563 9.725 13.17578125 10.734375 C13.05589844 11.5696875 12.93601562 12.405 12.8125 13.265625 C8.99877805 15.8081063 7.19462846 15.33720268 2.6875 14.953125 C1.42679687 14.85386719 0.16609375 14.75460937 -1.1328125 14.65234375 C-4.1875 14.265625 -4.1875 14.265625 -5.1875 13.265625 C-5.31237758 11.45635219 -5.36320846 9.64166393 -5.375 7.828125 C-5.38917969 6.83941406 -5.40335937 5.85070312 -5.41796875 4.83203125 C-5.05859201 0.83015802 -3.91252695 0.32604391 0 0 Z " fill="#3199F3" transform="translate(320.1875,312.734375)"/>
<path d="M0 0 C1.39456452 0.00667256 2.78911118 0.01863093 4.18359375 0.03515625 C4.89451172 0.03966797 5.60542969 0.04417969 6.33789062 0.04882812 C8.09899388 0.06064761 9.86005411 0.07858362 11.62109375 0.09765625 C12.85517582 2.56582039 12.82306954 4.34426826 12.87109375 7.09765625 C12.896875 7.98453125 12.92265625 8.87140625 12.94921875 9.78515625 C12.8409375 10.54828125 12.73265625 11.31140625 12.62109375 12.09765625 C8.78566918 14.65460597 6.96206842 14.13811264 2.43359375 13.72265625 C0.52513672 13.55636719 0.52513672 13.55636719 -1.421875 13.38671875 C-2.39769531 13.29132813 -3.37351563 13.1959375 -4.37890625 13.09765625 C-4.40577178 11.11856227 -4.42524 9.13936654 -4.44140625 7.16015625 C-4.45300781 6.05800781 -4.46460938 4.95585937 -4.4765625 3.8203125 C-4.33215524 -0.20576196 -4.12755453 0.11929348 0 0 Z " fill="#0689FB" transform="translate(160.37890625,313.90234375)"/>
<path d="M0 0 C0.66 0 1.32 0 2 0 C2 0.99 2 1.98 2 3 C2.66 3 3.32 3 4 3 C4.66 5.97 5.32 8.94 6 12 C6.66 12 7.32 12 8 12 C8.33 13.32 8.66 14.64 9 16 C9.99 15.67 10.98 15.34 12 15 C11.649375 13.9275 11.29875 12.855 10.9375 11.75 C10.05319814 8.21279257 9.97119449 7.25188876 11 4 C11.2266333 4.56920166 11.4532666 5.13840332 11.68676758 5.72485352 C12.7277439 8.33777574 13.77011202 10.95014063 14.8125 13.5625 C15.34713867 14.90538086 15.34713867 14.90538086 15.89257812 16.27539062 C16.41948242 17.59506836 16.41948242 17.59506836 16.95703125 18.94140625 C17.30161377 19.80451416 17.64619629 20.66762207 18.0012207 21.55688477 C18.88775967 23.72544881 19.82283065 25.86258821 20.78125 28 C22 31 22 31 21.6875 33.4375 C21.460625 33.953125 21.23375 34.46875 21 35 C20.34 34.67 19.68 34.34 19 34 C18.31060191 31.67328146 17.64533078 29.33932406 17 27 C16.34 26.01 15.68 25.02 15 24 C15 25.65 15 27.3 15 29 C15.33 29 15.66 29 16 29 C16.12117188 29.67546875 16.24234375 30.3509375 16.3671875 31.046875 C16.53476562 31.93890625 16.70234375 32.8309375 16.875 33.75 C17.03742188 34.63171875 17.19984375 35.5134375 17.3671875 36.421875 C17.89028675 38.98502375 17.89028675 38.98502375 19.0703125 41.078125 C20 43 20 43 20 47 C20.66 47 21.32 47 22 47 C22 48.98 22 50.96 22 53 C19.48963713 49.9517668 18.07703612 47.03394116 16.6953125 43.34375 C16.27636719 42.23773438 15.85742188 41.13171875 15.42578125 39.9921875 C14.99652344 38.83976562 14.56726563 37.68734375 14.125 36.5 C11.23355425 28.80716267 8.27099252 21.16778855 5.08007812 13.59375 C3.86424963 10.67400272 2.74624874 7.73018164 1.6875 4.75 C1.36136719 3.83734375 1.03523438 2.9246875 0.69921875 1.984375 C0.46847656 1.32953125 0.23773438 0.6746875 0 0 Z " fill="#0C8AF3" transform="translate(275,207)"/>
<path d="M0 0 C1 3 1 3 0.125 5.9375 C-0.56677085 9.98689032 1.07154768 12.08323032 3.25 15.4375 C7.81617488 22.61031364 8.89695064 29.72187722 10 38 C9.34 38 8.68 38 8 38 C7.67 39.32 7.34 40.64 7 42 C6.67 39.69 6.34 37.38 6 35 C5.34 35 4.68 35 4 35 C3.34 32.03 2.68 29.06 2 26 C1.34 26 0.68 26 0 26 C0 25.01 0 24.02 0 23 C-0.99 23 -1.98 23 -3 23 C-3.66 21.35 -4.32 19.7 -5 18 C-5.66 18 -6.32 18 -7 18 C-6.75 16.125 -6.75 16.125 -6 14 C-3.9375 12.75 -3.9375 12.75 -2 12 C-2.99 11.34 -3.98 10.68 -5 10 C-5.99 10.33 -6.98 10.66 -8 11 C-8 10.01 -8 9.02 -8 8 C-7.21625 7.938125 -6.4325 7.87625 -5.625 7.8125 C-4.75875 7.544375 -3.8925 7.27625 -3 7 C-1.67518454 4.60470331 -1.67518454 4.60470331 -1 2 C-0.67 1.34 -0.34 0.68 0 0 Z " fill="#168FF5" transform="translate(277,184)"/>
<path d="M0 0 C0.99 0.33 1.98 0.66 3 1 C3 2.32 3 3.64 3 5 C2.01 5.33 1.02 5.66 0 6 C-1.21869929 8.50447516 -1.21869929 8.50447516 -2 11 C-2.66 11 -3.32 11 -4 11 C-4 12.32 -4 13.64 -4 15 C-5.32 15 -6.64 15 -8 15 C-8.99 17.475 -8.99 17.475 -10 20 C-10.99 20 -11.98 20 -13 20 C-13 21.65 -13 23.3 -13 25 C-14.65 25 -16.3 25 -18 25 C-18 25.99 -18 26.98 -18 28 C-18.99 28 -19.98 28 -21 28 C-21.33 29.32 -21.66 30.64 -22 32 C-24.64 32 -27.28 32 -30 32 C-30 31.01 -30 30.02 -30 29 C-28.329375 28.4121875 -28.329375 28.4121875 -26.625 27.8125 C-23.68039334 26.57517033 -23.14117455 26.26393503 -21.5625 23.3125 C-21.2840625 22.1678125 -21.2840625 22.1678125 -21 21 C-20.34 21 -19.68 21 -19 21 C-19 20.34 -19 19.68 -19 19 C-9.28947368 10 -9.28947368 10 -4 10 C-3.67 7.69 -3.34 5.38 -3 3 C-2.34 3 -1.68 3 -1 3 C-0.67 2.01 -0.34 1.02 0 0 Z " fill="#0B88F3" transform="translate(197,262)"/>
<path d="M0 0 C0.495 1.485 0.495 1.485 1 3 C0.01 3.33 -0.98 3.66 -2 4 C-2 4.99 -2 5.98 -2 7 C-2.66 7 -3.32 7 -4 7 C-4.33 8.32 -4.66 9.64 -5 11 C-5.66 11 -6.32 11 -7 11 C-8.20628008 13.33214148 -9.1654738 15.49642139 -10 18 C-12.89558441 19.4477922 -14.74188938 20 -18 20 C-18.268125 20.969375 -18.53625 21.93875 -18.8125 22.9375 C-19.204375 23.948125 -19.59625 24.95875 -20 26 C-20.99 26.33 -21.98 26.66 -23 27 C-23.433125 27.8971875 -23.433125 27.8971875 -23.875 28.8125 C-25.37206594 31.72346154 -27.34303887 33.14012721 -30 35 C-30.66 35 -31.32 35 -32 35 C-32 35.66 -32 36.32 -32 37 C-32.99 37 -33.98 37 -35 37 C-35.99 39.475 -35.99 39.475 -37 42 C-37.99 41.67 -38.98 41.34 -40 41 C-38.71937515 39.2925002 -37.38232443 37.62626404 -36 36 C-35.34 36 -34.68 36 -34 36 C-33.5978125 35.0409375 -33.5978125 35.0409375 -33.1875 34.0625 C-32 32 -32 32 -29 31 C-29 30.34 -29 29.68 -29 29 C-28.34 29 -27.68 29 -27 29 C-27 28.34 -27 27.68 -27 27 C-26.34 27 -25.68 27 -25 27 C-25 26.34 -25 25.68 -25 25 C-23.625 23.375 -23.625 23.375 -22 22 C-21.34 22 -20.68 22 -20 22 C-19.75523926 21.42926758 -19.51047852 20.85853516 -19.25830078 20.27050781 C-17.7798053 17.60267546 -16.03873452 15.81283685 -13.8671875 13.671875 C-12.65869141 12.47304688 -12.65869141 12.47304688 -11.42578125 11.25 C-10.16314453 10.0125 -10.16314453 10.0125 -8.875 8.75 C-7.60076172 7.48929687 -7.60076172 7.48929687 -6.30078125 6.203125 C-4.20495077 4.13084317 -2.10459287 2.06337607 0 0 Z " fill="#3D9EEC" transform="translate(411,265)"/>
<path d="M0 0 C2 1 2 1 3 3 C6.02934491 3.65772428 6.02934491 3.65772428 9 4 C6.53721199 6.46278801 4.29323018 6.99771255 1 8 C1 8.66 1 9.32 1 10 C-0.0209375 10.7425 -0.0209375 10.7425 -1.0625 11.5 C-5.24374763 15.05850862 -7.98420317 19.44588606 -11 24 C-12 21 -12 21 -11 18 C-10.34 18 -9.68 18 -9 18 C-9.33 16.35 -9.66 14.7 -10 13 C-11.98 13.99 -11.98 13.99 -14 15 C-12.63055898 12.05043472 -11.12169591 9.47531189 -9 7 C-8.34 7 -7.68 7 -7 7 C-7 6.34 -7 5.68 -7 5 C-5.46875 3.7109375 -5.46875 3.7109375 -3.5 2.375 C-2.8503125 1.92898437 -2.200625 1.48296875 -1.53125 1.0234375 C-0.77328125 0.51683594 -0.77328125 0.51683594 0 0 Z " fill="#369AEE" transform="translate(242,181)"/>
<path d="M0 0 C0.66 0 1.32 0 2 0 C-0.36482701 7.61103027 -3.4358921 14.79148517 -6.6875 22.0625 C-7.19861328 23.21427734 -7.70972656 24.36605469 -8.23632812 25.55273438 C-9.48721306 28.37014812 -10.74184323 31.18582798 -12 34 C-12.33 34 -12.66 34 -13 34 C-13 31.36 -13 28.72 -13 26 C-12.34 26 -11.68 26 -11 26 C-11.66 25.34 -12.32 24.68 -13 24 C-15.10820797 24.3185177 -15.10820797 24.3185177 -17 25 C-15.39306847 19.91949932 -13.42353736 15.03815871 -11.375 10.125 C-11.05015625 9.34125 -10.7253125 8.5575 -10.390625 7.75 C-9.59559238 5.83256838 -8.79805149 3.9161771 -8 2 C-7.67 2 -7.34 2 -7 2 C-7 4.64 -7 7.28 -7 10 C-7.99 10.495 -7.99 10.495 -9 11 C-9.68931344 13.34907875 -9.68931344 13.34907875 -10.125 16.0625 C-10.29257813 16.98160156 -10.46015625 17.90070313 -10.6328125 18.84765625 C-10.75398437 19.55792969 -10.87515625 20.26820313 -11 21 C-10.34 21 -9.68 21 -9 21 C-7.53060547 16.69677317 -6.22556737 12.37702633 -5 8 C-4.34 8 -3.68 8 -3 8 C-3 7.01 -3 6.02 -3 5 C-2.34 5 -1.68 5 -1 5 C-0.67 3.35 -0.34 1.7 0 0 Z " fill="#379CF0" transform="translate(220,220)"/>
<path d="M0 0 C2.70272533 2.87164566 3.94791837 4.30991841 4.25 8.3125 C4.1675 9.199375 4.085 10.08625 4 11 C6.475 11.99 6.475 11.99 9 13 C9 15.97 9 18.94 9 22 C9.66 22 10.32 22 11 22 C12.125 27.75 12.125 27.75 11 30 C9.68 30 8.36 30 7 30 C7 28.02 7 26.04 7 24 C6.34 24 5.68 24 5 24 C2.54582388 18.326858 0.53753096 13.18160604 0 7 C-0.33 7 -0.66 7 -1 7 C-1.04254356 5.00045254 -1.04080783 2.99958364 -1 1 C-0.67 0.67 -0.34 0.34 0 0 Z " fill="#068CF9" transform="translate(290,230)"/>
<path d="M0 0 C4.23092172 -0.36265043 6.62637846 0.39749195 10 3 C10 3.99 10 4.98 10 6 C10.99 6 11.98 6 13 6 C13 6.66 13 7.32 13 8 C15.63904371 9.41377341 18.07120629 10.37240135 21 11 C21 11.99 21 12.98 21 14 C14.85137108 14.59502861 9.26795328 12.73956477 4.41796875 9.01953125 C2.22040874 7.06422195 0.08465814 5.0748016 -2 3 C-1.34 2.67 -0.68 2.34 0 2 C0 1.34 0 0.68 0 0 Z " fill="#4EA7ED" transform="translate(314,279)"/>
<path d="M0 0 C0.70253906 0.00386719 1.40507812 0.00773437 2.12890625 0.01171875 C2.83144531 0.00785156 3.53398437 0.00398438 4.2578125 0 C9.50229247 0.01010497 9.50229247 0.01010497 10.62890625 1.13671875 C10.70134678 3.15636074 10.71267813 5.17838999 10.69140625 7.19921875 C10.68238281 8.30394531 10.67335938 9.40867187 10.6640625 10.546875 C10.65246094 11.40152344 10.64085937 12.25617188 10.62890625 13.13671875 C10.29890625 13.13671875 9.96890625 13.13671875 9.62890625 13.13671875 C9.62890625 9.50671875 9.62890625 5.87671875 9.62890625 2.13671875 C5.00890625 2.13671875 0.38890625 2.13671875 -4.37109375 2.13671875 C-4.70109375 23.58671875 -5.03109375 45.03671875 -5.37109375 67.13671875 C-5.70109375 67.13671875 -6.03109375 67.13671875 -6.37109375 67.13671875 C-6.3942201 58.54866155 -6.41201033 49.96061726 -6.42290592 41.37253666 C-6.42813411 37.38514675 -6.43523059 33.39777808 -6.4465332 29.41040039 C-6.45736436 25.56546761 -6.46337107 21.7205553 -6.46597099 17.87560844 C-6.46782483 16.40552892 -6.47144466 14.93545057 -6.47682381 13.46537971 C-6.4840373 11.41317408 -6.48508456 9.36105408 -6.48461914 7.30883789 C-6.48683975 6.13857559 -6.48906036 4.96831329 -6.49134827 3.7625885 C-6.27678269 -0.92265149 -4.17654901 0.0080473 0 0 Z " fill="#529FE0" transform="translate(261.37109375,259.86328125)"/>
<path d="M0 0 C0.66 0.33 1.32 0.66 2 1 C2 2.65 2 4.3 2 6 C1.01 6.33 0.02 6.66 -1 7 C-1.33 8.65 -1.66 10.3 -2 12 C-2.66 12 -3.32 12 -4 12 C-4 12.99 -4 13.98 -4 15 C-4.66 15 -5.32 15 -6 15 C-5.938125 16.423125 -5.938125 16.423125 -5.875 17.875 C-6 21 -6 21 -8 23 C-8.39764263 24.98821313 -8.73775349 26.98944339 -9 29 C-10.32 28.67 -11.64 28.34 -13 28 C-12.34 24.7 -11.68 21.4 -11 18 C-10.01 17.67 -9.02 17.34 -8 17 C-8 14.36 -8 11.72 -8 9 C-7.34 9 -6.68 9 -6 9 C-6 8.34 -6 7.68 -6 7 C-5.01 6.34 -4.02 5.68 -3 5 C-1.94895617 3.36504293 -0.94011682 1.70116376 0 0 Z " fill="#0A89F6" transform="translate(221,213)"/>
<path d="M0 0 C2.47923801 -0.02685095 4.9581884 -0.04676547 7.4375 -0.0625 C8.14455078 -0.07087891 8.85160156 -0.07925781 9.58007812 -0.08789062 C11.38693559 -0.09653588 13.19387603 -0.05220011 15 0 C16 1 16 1 16.11352539 3.22485352 C16.10828857 4.18319092 16.10305176 5.14152832 16.09765625 6.12890625 C16.09443359 7.16337891 16.09121094 8.19785156 16.08789062 9.26367188 C16.07951172 10.35228516 16.07113281 11.44089844 16.0625 12.5625 C16.05798828 13.65498047 16.05347656 14.74746094 16.04882812 15.87304688 C16.03699826 18.58208495 16.02051543 21.29101599 16 24 C13.89651926 24.19504458 11.79217415 24.38078496 9.6875 24.5625 C7.92986328 24.71912109 7.92986328 24.71912109 6.13671875 24.87890625 C3 25 3 25 0 24 C-1.33257403 7.1070615 -1.33257403 7.1070615 0 0 Z M1 2 C1 8.93 1 15.86 1 23 C5.29 23 9.58 23 14 23 C14 16.07 14 9.14 14 2 C9.71 2 5.42 2 1 2 Z " fill="#58A7E9" transform="translate(176,303)"/>
<path d="M0 0 C1.39456452 0.00667256 2.78911118 0.01863093 4.18359375 0.03515625 C4.89451172 0.03966797 5.60542969 0.04417969 6.33789062 0.04882812 C8.09899388 0.06064761 9.86005411 0.07858362 11.62109375 0.09765625 C12.85517582 2.56582039 12.82306954 4.34426826 12.87109375 7.09765625 C12.896875 7.98453125 12.92265625 8.87140625 12.94921875 9.78515625 C12.8409375 10.54828125 12.73265625 11.31140625 12.62109375 12.09765625 C8.78566918 14.65460597 6.96206842 14.13811264 2.43359375 13.72265625 C0.52513672 13.55636719 0.52513672 13.55636719 -1.421875 13.38671875 C-2.39769531 13.29132813 -3.37351563 13.1959375 -4.37890625 13.09765625 C-4.40577178 11.11856227 -4.42524 9.13936654 -4.44140625 7.16015625 C-4.45300781 6.05800781 -4.46460938 4.95585937 -4.4765625 3.8203125 C-4.33215524 -0.20576196 -4.12755453 0.11929348 0 0 Z M-1.37890625 3.09765625 C-1.37890625 5.73765625 -1.37890625 8.37765625 -1.37890625 11.09765625 C1.50320677 12.05836059 3.31959419 12.20347508 6.30859375 12.16015625 C7.11683594 12.15113281 7.92507812 12.14210938 8.7578125 12.1328125 C9.37269531 12.12121094 9.98757812 12.10960937 10.62109375 12.09765625 C10.65203125 10.17953125 10.65203125 10.17953125 10.68359375 8.22265625 C10.69519531 7.50335938 10.70679688 6.7840625 10.71875 6.04296875 C10.74758617 4.01580221 10.74758617 4.01580221 9.62109375 2.09765625 C5.78883948 2.00853406 2.35547223 2.21897896 -1.37890625 3.09765625 Z " fill="#4EA2E7" transform="translate(160.37890625,313.90234375)"/>
<path d="M0 0 C2.5 1.375 2.5 1.375 5 3 C5 3.66 5 4.32 5 5 C6.051875 5.41572266 6.051875 5.41572266 7.125 5.83984375 C11.1310441 7.45641318 15.09379206 9.17296929 19.0625 10.87890625 C21.72629867 11.89554218 24.19349597 12.54084769 27 13 C27 13.33 27 13.66 27 14 C21.555 13.505 21.555 13.505 16 13 C16.99 14.98 17.98 16.96 19 19 C14.93465943 19.28883414 12.66941645 18.57875609 9.1875 16.5 C8.39730469 16.0359375 7.60710937 15.571875 6.79296875 15.09375 C5.90544922 14.55234375 5.90544922 14.55234375 5 14 C8.93795909 12.77580837 11.16112237 13.51679728 15 15 C15 14.01 15 13.02 15 12 C14.236875 11.87625 13.47375 11.7525 12.6875 11.625 C10 11 10 11 7 9 C7 8.34 7 7.68 7 7 C6.01 7 5.02 7 4 7 C4 6.01 4 5.02 4 4 C2.68 4 1.36 4 0 4 C0 2.68 0 1.36 0 0 Z " fill="#489FE9" transform="translate(320,278)"/>
<path d="M0 0 C2.76120793 3.39840976 4.73503634 7.10322494 6.6875 11 C7.00783203 11.61617188 7.32816406 12.23234375 7.65820312 12.8671875 C9.36107813 16.25115233 10 18.12674522 10 22 C9.34 22.33 8.68 22.66 8 23 C7.34 20.36 6.68 17.72 6 15 C4.35 15.33 2.7 15.66 1 16 C1.19471111 17.94999129 1.19471111 17.94999129 2 20 C2.66 20.309375 3.32 20.61875 4 20.9375 C4.99 21.4634375 4.99 21.4634375 6 22 C6.75 24.625 6.75 24.625 7 27 C6.34 27 5.68 27 5 27 C3.71593601 25.04775792 2.52058322 23.03659238 1.375 21 C0.74335938 19.88625 0.11171875 18.7725 -0.5390625 17.625 C-1.02117187 16.75875 -1.50328125 15.8925 -2 15 C-0.68 14.67 0.64 14.34 2 14 C2 11.36 2 8.72 2 6 C1.34 6 0.68 6 0 6 C0 4.02 0 2.04 0 0 Z " fill="#2694F0" transform="translate(299,246)"/>
<path d="M0 0 C1.32 0.33 2.64 0.66 4 1 C3.44570312 1.75925781 2.89140625 2.51851563 2.3203125 3.30078125 C1.23363281 4.79158203 1.23363281 4.79158203 0.125 6.3125 C-0.59429687 7.29863281 -1.31359375 8.28476562 -2.0546875 9.30078125 C-3.4055935 11.17523115 -4.71835329 13.07752993 -6 15 C-6.66 15 -7.32 15 -8 15 C-8 15.66 -8 16.32 -8 17 C-8.66 17 -9.32 17 -10 17 C-10 17.66 -10 18.32 -10 19 C-10.66 19 -11.32 19 -12 19 C-12 19.66 -12 20.32 -12 21 C-16.455 23.475 -16.455 23.475 -21 26 C-21 25.01 -21 24.02 -21 23 C-20.01 23 -19.02 23 -18 23 C-18 22.01 -18 21.02 -18 20 C-16.35 20 -14.7 20 -13 20 C-13 18.35 -13 16.7 -13 15 C-12.01 15 -11.02 15 -10 15 C-9.34 13.02 -8.68 11.04 -8 9 C-6.68 9.33 -5.36 9.66 -4 10 C-4 8.68 -4 7.36 -4 6 C-3.34 5.67 -2.68 5.34 -2 5 C-1.27840576 3.35636866 -0.60648579 1.68949614 0 0 Z " fill="#53A7EF" transform="translate(197,267)"/>
<path d="M0 0 C0.66 0 1.32 0 2 0 C0.30132153 6.26662732 -1.79911499 12.37127084 -3.9375 18.5 C-4.45860352 20.01013672 -4.45860352 20.01013672 -4.99023438 21.55078125 C-6.81479851 26.7942556 -8.72978623 31.9329398 -11 37 C-12.2380014 33.42355152 -11.74926071 30.66305234 -11 27 C-10.34 27 -9.68 27 -9 27 C-9.061875 26.360625 -9.12375 25.72125 -9.1875 25.0625 C-8.92738578 20.81396778 -7.7486243 16.8822668 -6 13 C-5.34 12.67 -4.68 12.34 -4 12 C-3.53476937 10.10466658 -3.53476937 10.10466658 -3.375 7.9375 C-3.25125 6.638125 -3.1275 5.33875 -3 4 C-2.34 4 -1.68 4 -1 4 C-0.67 2.68 -0.34 1.36 0 0 Z " fill="#43A2ED" transform="translate(294,135)"/>
<path d="M0 0 C0.99 0.33 1.98 0.66 3 1 C3 2.32 3 3.64 3 5 C2.01 5.33 1.02 5.66 0 6 C-1.21869929 8.50447516 -1.21869929 8.50447516 -2 11 C-2.66 11 -3.32 11 -4 11 C-4 12.32 -4 13.64 -4 15 C-5.32 15 -6.64 15 -8 15 C-8.226875 15.804375 -8.45375 16.60875 -8.6875 17.4375 C-9.120625 18.283125 -9.55375 19.12875 -10 20 C-12.625 20.8125 -12.625 20.8125 -15 21 C-15.33 20.34 -15.66 19.68 -16 19 C-15.01 18.67 -14.02 18.34 -13 18 C-12.896875 17.401875 -12.79375 16.80375 -12.6875 16.1875 C-11.59878271 12.72339954 -9.04289859 11.73879919 -6 10 C-5.34 10 -4.68 10 -4 10 C-3.67 7.69 -3.34 5.38 -3 3 C-2.34 3 -1.68 3 -1 3 C-0.67 2.01 -0.34 1.02 0 0 Z " fill="#0888F7" transform="translate(197,262)"/>
<path d="M0 0 C0 1.32 0 2.64 0 4 C-4.21896866 6.04898287 -7.65372146 6.21207997 -12.3125 6.125 C-13.56675781 6.10695313 -14.82101563 6.08890625 -16.11328125 6.0703125 C-17.06589844 6.04710937 -18.01851562 6.02390625 -19 6 C-19 4.68 -19 3.36 -19 2 C-18.24074219 1.93941406 -17.48148438 1.87882812 -16.69921875 1.81640625 C-15.70535156 1.73261719 -14.71148437 1.64882813 -13.6875 1.5625 C-12.70136719 1.48128906 -11.71523437 1.40007812 -10.69921875 1.31640625 C-6.93675249 0.87536462 -3.85159286 -0.1040971 0 0 Z " fill="#0A89F6" transform="translate(164,293)"/>
<path d="M0 0 C1.85776765 3.13498292 2.20140476 5.37471432 2 9 C1.34 9 0.68 9 0 9 C0 10.65 0 12.3 0 14 C-0.66 14 -1.32 14 -2 14 C-2 15.32 -2 16.64 -2 18 C-2.66 18 -3.32 18 -4 18 C-4 20.31 -4 22.62 -4 25 C-4.66 25 -5.32 25 -6 25 C-6 26.32 -6 27.64 -6 29 C-6.99 29.33 -7.98 29.66 -9 30 C-7.12826776 22.54350572 -4.76914414 15.36806578 -2.0859375 8.1640625 C-1.14804069 5.43134157 -0.47917093 2.84308088 0 0 Z " fill="#3696EA" transform="translate(207,325)"/>
<path d="M0 0 C7.32870811 0.12985529 7.32870811 0.12985529 10.5625 2 C12.75 4.375 12.75 4.375 13.25 7.25 C12.73530683 10.4668323 11.90868848 13.33344273 10.75 16.375 C10.42 16.375 10.09 16.375 9.75 16.375 C9.75 13.405 9.75 10.435 9.75 7.375 C9.09 7.375 8.43 7.375 7.75 7.375 C7.42 6.055 7.09 4.735 6.75 3.375 C1.8 3.045 -3.15 2.715 -8.25 2.375 C-5.50637988 -0.36862012 -3.82800386 0.04369867 0 0 Z " fill="#79B6EA" transform="translate(286.25,118.625)"/>
<path d="M0 0 C0.66 0.33 1.32 0.66 2 1 C2 3.97 2 6.94 2 10 C2.66 10 3.32 10 4 10 C5.125 15.75 5.125 15.75 4 18 C2.68 18 1.36 18 0 18 C0 16.02 0 14.04 0 12 C-0.66 12 -1.32 12 -2 12 C-2.66 10.02 -3.32 8.04 -4 6 C-3.01 5.67 -2.02 5.34 -1 5 C-0.67 3.35 -0.34 1.7 0 0 Z " fill="#158FF5" transform="translate(297,242)"/>
<path d="M0 0 C2.76276177 0.52268466 5.3260876 1.10869587 8 2 C8.99 2 9.98 2 11 2 C11 2.66 11 3.32 11 4 C10.34 4 9.68 4 9 4 C10.72412792 8.03167286 13.13098994 9.91302696 16.5390625 12.53515625 C18 14 18 14 18 17 C18.66 17 19.32 17 20 17 C20.33 17.99 20.66 18.98 21 20 C20.34 20 19.68 20 19 20 C19 19.34 19 18.68 19 18 C18.34 18 17.68 18 17 18 C17 17.34 17 16.68 17 16 C16.34 16 15.68 16 15 16 C15 15.34 15 14.68 15 14 C14.34 14 13.68 14 13 14 C13 13.34 13 12.68 13 12 C12.34 12 11.68 12 11 12 C11 11.34 11 10.68 11 10 C10.34 10 9.68 10 9 10 C7.31267723 8.01739574 5.64633943 6.0167658 4 4 C3.34 3.67 2.68 3.34 2 3 C2 2.34 2 1.68 2 1 C1.34 0.67 0.68 0.34 0 0 Z " fill="#69ADEB" transform="translate(119,326)"/>
<path d="M0 0 C1.27491216 2.54982433 1.02596616 4.16465424 0.87890625 7.0078125 C0.83056641 7.99394531 0.78222656 8.98007812 0.73242188 9.99609375 C0.67634766 11.02863281 0.62027344 12.06117188 0.5625 13.125 C0.51029297 14.16527344 0.45808594 15.20554687 0.40429688 16.27734375 C0.27439054 18.85185116 0.13941748 21.42599296 0 24 C2.31 24 4.62 24 7 24 C7 24.66 7 25.32 7 26 C4.03 26 1.06 26 -2 26 C-2 17.75 -2 9.5 -2 1 C-1.34 0.67 -0.68 0.34 0 0 Z " fill="#2E90DE" transform="translate(237,301)"/>
<path d="M0 0 C1.32 0 2.64 0 4 0 C4.27218935 8.16568047 4.27218935 8.16568047 2 12 C2 12.99 2 13.98 2 15 C2 15.66 2 16.32 2 17 C0.5459375 17.680625 0.5459375 17.680625 -0.9375 18.375 C-4.07079582 19.65786221 -4.07079582 19.65786221 -5 22 C-6.32 21.67 -7.64 21.34 -9 21 C-8.08552154 19.91481889 -7.16829593 18.83195262 -6.25 17.75 C-5.70601563 17.10417969 -5.16203125 16.45835937 -4.6015625 15.79296875 C-3 14 -3 14 -0.625 12.0625 C1.95424516 8.78884268 1.32984355 6.09005999 1 2 C0.67 1.34 0.34 0.68 0 0 Z " fill="#46A2EC" transform="translate(421,243)"/>
<path d="M0 0 C0.33 1.32 0.66 2.64 1 4 C1.99 4 2.98 4 4 4 C4.33 3.34 4.66 2.68 5 2 C5.99 2 6.98 2 8 2 C8 2.66 8 3.32 8 4 C7.34 4 6.68 4 6 4 C5.87625 4.598125 5.7525 5.19625 5.625 5.8125 C5 8 5 8 3 11 C2.34 9.68 1.68 8.36 1 7 C0.38125 7.99 -0.2375 8.98 -0.875 10 C-1.57625 10.99 -2.2775 11.98 -3 13 C-3.66 13 -4.32 13 -5 13 C-5 13.66 -5 14.32 -5 15 C-5.66 14.67 -6.32 14.34 -7 14 C-4.69 9.38 -2.38 4.76 0 0 Z " fill="#429FEF" transform="translate(220,207)"/>
<path d="M0 0 C0.99 2.31 1.98 4.62 3 7 C3.66 6.67 4.32 6.34 5 6 C5.33 8.31 5.66 10.62 6 13 C4.35 13 2.7 13 1 13 C0.566875 11.906875 0.13375 10.81375 -0.3125 9.6875 C-1.50873916 6.86209702 -2.70733935 5.07431202 -5 3 C-5 2.34 -5 1.68 -5 1 C-2 0 -2 0 0 0 Z " fill="#088AF7" transform="translate(305,261)"/>
<path d="M0 0 C0.66 0 1.32 0 2 0 C-0.05338861 6.51470776 -2.49534683 12.78730029 -5.1875 19.0625 C-5.55552734 19.92810547 -5.92355469 20.79371094 -6.30273438 21.68554688 C-7.19872592 23.79170883 -8.09784655 25.89647192 -9 28 C-9.33 28 -9.66 28 -10 28 C-10 25.69 -10 23.38 -10 21 C-9.67 21 -9.34 21 -9 21 C-7.53060547 16.69677317 -6.22556737 12.37702633 -5 8 C-4.34 8 -3.68 8 -3 8 C-3 7.01 -3 6.02 -3 5 C-2.34 5 -1.68 5 -1 5 C-0.67 3.35 -0.34 1.7 0 0 Z " fill="#52A4EB" transform="translate(220,220)"/>
<path d="M0 0 C3.3125 -0.3125 3.3125 -0.3125 7 0 C8.9375 2.5 8.9375 2.5 10 5 C9.01 6.485 9.01 6.485 8 8 C1.82465341 8.95241664 -4.1658181 8.07437579 -10 6 C-6.91566208 5.0983142 -4.14658179 4.86531951 -0.9375 4.875 C-0.08027344 4.87242187 0.77695312 4.86984375 1.66015625 4.8671875 C4 5 4 5 7 6 C7 4.68 7 3.36 7 2 C6.1028125 2.2784375 6.1028125 2.2784375 5.1875 2.5625 C3 3 3 3 0 2 C0 1.34 0 0.68 0 0 Z " fill="#53A8EB" transform="translate(349,292)"/>
<path d="M0 0 C1.03115279 3.26913624 0.9638984 5.86041348 0.5625 9.25 C0.46066406 10.14203125 0.35882813 11.0340625 0.25390625 11.953125 C0.17011719 12.62859375 0.08632813 13.3040625 0 14 C-0.66 14 -1.32 14 -2 14 C-2.12375 14.763125 -2.2475 15.52625 -2.375 16.3125 C-3 19 -3 19 -5 22 C-7.64 21.67 -10.28 21.34 -13 21 C-13 20.67 -13 20.34 -13 20 C-10.69 20 -8.38 20 -6 20 C-5.81824219 19.31035156 -5.63648438 18.62070313 -5.44921875 17.91015625 C-3.83165834 11.86296885 -2.05819325 5.91183168 0 0 Z " fill="#459FED" transform="translate(263,158)"/>
<path d="M0 0 C2.125 0.375 2.125 0.375 4 1 C4 1.66 4 2.32 4 3 C2.01739574 4.68732277 0.0167658 6.35366057 -2 8 C-2.33 8.66 -2.66 9.32 -3 10 C-3.66 10 -4.32 10 -5 10 C-5 10.66 -5 11.32 -5 12 C-6.375 13.625 -6.375 13.625 -8 15 C-8.66 15 -9.32 15 -10 15 C-10.33 15.66 -10.66 16.32 -11 17 C-11.33 15.68 -11.66 14.36 -12 13 C-10.68 12.67 -9.36 12.34 -8 12 C-8 11.01 -8 10.02 -8 9 C-7.01 9 -6.02 9 -5 9 C-5 8.01 -5 7.02 -5 6 C-4.34 6 -3.68 6 -3 6 C-2.87625 5.38125 -2.7525 4.7625 -2.625 4.125 C-2 2 -2 2 0 0 Z " fill="#4AA1EB" transform="translate(415,285)"/>
<path d="M0 0 C0.99 0 1.98 0 3 0 C3 0.66 3 1.32 3 2 C3.66 2 4.32 2 5 2 C7.40355927 5.6053389 7.75085268 8.79361025 7 13 C6.01 14.32 5.02 15.64 4 17 C4 13.37 4 9.74 4 6 C2.02 6.99 2.02 6.99 0 8 C0 5.36 0 2.72 0 0 Z " fill="#2793EF" transform="translate(152,149)"/>
<path d="M0 0 C5.28 0 10.56 0 16 0 C12.57905758 2.28062828 11.31812778 2.21925007 7.3125 2.125 C5.82169922 2.09792969 5.82169922 2.09792969 4.30078125 2.0703125 C3.54152344 2.04710937 2.78226563 2.02390625 2 2 C2 3.32 2 4.64 2 6 C6.62 6 11.24 6 16 6 C16 6.33 16 6.66 16 7 C10.72 7 5.44 7 0 7 C-1 2 -1 2 0 0 Z " fill="#409AE5" transform="translate(143,293)"/>
<path d="M0 0 C1.32 0 2.64 0 4 0 C4 0.99 4 1.98 4 3 C3.34 3 2.68 3 2 3 C2 5.64 2 8.28 2 11 C1.01 11 0.02 11 -1 11 C-1 11.99 -1 12.98 -1 14 C-1.66 14 -2.32 14 -3 14 C-3.33 14.66 -3.66 15.32 -4 16 C-3.66666667 13.66666667 -3.33333333 11.33333333 -3 9 C-2.855625 7.741875 -2.71125 6.48375 -2.5625 5.1875 C-2 2 -2 2 0 0 Z " fill="#078AFB" transform="translate(205,243)"/>
<path d="M0 0 C4.875 4.625 4.875 4.625 6 8 C6.66 8 7.32 8 8 8 C8 8.66 8 9.32 8 10 C8.66 10 9.32 10 10 10 C10 10.66 10 11.32 10 12 C10.639375 12.28875 11.27875 12.5775 11.9375 12.875 C14 14 14 14 15 16 C14.16855469 15.7834375 14.16855469 15.7834375 13.3203125 15.5625 C12.59585938 15.376875 11.87140625 15.19125 11.125 15 C10.04605469 14.7215625 10.04605469 14.7215625 8.9453125 14.4375 C7.00710683 13.92686035 7.00710683 13.92686035 5 14 C4.9175 13.0925 4.835 12.185 4.75 11.25 C3.89169102 7.53066107 2.66915853 6.58305665 0 4 C0 2.68 0 1.36 0 0 Z " fill="#54ABEB" transform="translate(76,252)"/>
<path d="M0 0 C0.99 0.33 1.98 0.66 3 1 C3.66 4.63 4.32 8.26 5 12 C4.34 12 3.68 12 3 12 C2.67 13.32 2.34 14.64 2 16 C1.67 13.69 1.34 11.38 1 9 C0.34 9 -0.32 9 -1 9 C-1.09765625 2.84765625 -1.09765625 2.84765625 -1 1 C-0.67 0.67 -0.34 0.34 0 0 Z " fill="#0B8BF7" transform="translate(282,210)"/>
<path d="M0 0 C0.66 0 1.32 0 2 0 C1.68950274 1.43793392 1.3765224 2.8753318 1.0625 4.3125 C0.88847656 5.11300781 0.71445313 5.91351563 0.53515625 6.73828125 C0 9 0 9 -1 12 C-3.64 12 -6.28 12 -9 12 C-8.875 10.125 -8.875 10.125 -8 8 C-7.030625 7.71125 -6.06125 7.4225 -5.0625 7.125 C-4.051875 6.75375 -3.04125 6.3825 -2 6 C-0.54839062 2.98220128 -0.54839062 2.98220128 0 0 Z " fill="#0F8AF0" transform="translate(206,315)"/>
<path d="M0 0 C1.65 0 3.3 0 5 0 C5 0.99 5 1.98 5 3 C4.01 3.33 3.02 3.66 2 4 C1.67 10.6 1.34 17.2 1 24 C4.96 24 8.92 24 13 24 C13.33 23.34 13.66 22.68 14 22 C14 22.99 14 23.98 14 25 C9.38 25 4.76 25 0 25 C0 16.75 0 8.5 0 0 Z " fill="#0F88EE" transform="translate(297,301)"/>
<path d="M0 0 C1 3 1 3 0.25 6.1875 C-0.05955344 10.90818997 1.24295482 12.61080852 3.96875 16.30078125 C4.47921875 17.14189453 4.47921875 17.14189453 5 18 C4.67 18.66 4.34 19.32 4 20 C3.34 20 2.68 20 2 20 C1.67 18.02 1.34 16.04 1 14 C0.34 14 -0.32 14 -1 14 C-2.37310707 12.70766393 -3.71034824 11.37562854 -5 10 C-5.99 10.33 -6.98 10.66 -8 11 C-8 10.01 -8 9.02 -8 8 C-7.21625 7.938125 -6.4325 7.87625 -5.625 7.8125 C-4.75875 7.544375 -3.8925 7.27625 -3 7 C-1.67518454 4.60470331 -1.67518454 4.60470331 -1 2 C-0.67 1.34 -0.34 0.68 0 0 Z " fill="#4DA5EF" transform="translate(277,184)"/>
<path d="M0 0 C0 3.57575896 -1.08840607 5.05295935 -3 8 C-2.34 8 -1.68 8 -1 8 C-1 8.66 -1 9.32 -1 10 C-2.65 9.67 -4.3 9.34 -6 9 C-6 9.66 -6 10.32 -6 11 C-6.99 11.495 -6.99 11.495 -8 12 C-7.67 15.3 -7.34 18.6 -7 22 C-10 20 -10 20 -10.64453125 17.96875 C-10.96069162 13.32192788 -10.68826678 10.88645878 -7.76171875 7.1171875 C-5.25518779 4.62838307 -2.70507484 2.27033067 0 0 Z " fill="#4BA3EC" transform="translate(351,326)"/>
<path d="M0 0 C1.32 0.33 2.64 0.66 4 1 C4.12117188 1.67546875 4.24234375 2.3509375 4.3671875 3.046875 C4.53476562 3.93890625 4.70234375 4.8309375 4.875 5.75 C5.03742188 6.63171875 5.19984375 7.5134375 5.3671875 8.421875 C5.89028675 10.98502375 5.89028675 10.98502375 7.0703125 13.078125 C8 15 8 15 8 19 C8.66 19 9.32 19 10 19 C10 20.98 10 22.96 10 25 C6.61219634 21.17438786 5.10257521 16.64252024 3.3125 11.9375 C2.99216797 11.12216797 2.67183594 10.30683594 2.34179688 9.46679688 C0 3.39010861 0 3.39010861 0 0 Z " fill="#3D9DEB" transform="translate(287,235)"/>
<path d="M0 0 C0.66 0 1.32 0 2 0 C2 0.99 2 1.98 2 3 C2.66 3 3.32 3 4 3 C4.66 5.97 5.32 8.94 6 12 C6.66 12 7.32 12 8 12 C8.20496094 12.63808594 8.40992188 13.27617187 8.62109375 13.93359375 C8.89050781 14.75988281 9.15992188 15.58617187 9.4375 16.4375 C9.70433594 17.26121094 9.97117187 18.08492187 10.24609375 18.93359375 C10.82155494 20.96219588 10.82155494 20.96219588 12 22 C12.04080783 23.99958364 12.04254356 26.00045254 12 28 C9.54954973 25.54954973 8.89348278 23.43618977 7.6875 20.1875 C7.0378125 18.455 7.0378125 18.455 6.375 16.6875 C5.92125 15.470625 5.4675 14.25375 5 13 C4.06859148 10.56011463 3.12788565 8.12395373 2.1875 5.6875 C1.45833333 3.79166667 0.72916667 1.89583333 0 0 Z " fill="#52A7EB" transform="translate(275,207)"/>
<path d="M0 0 C0.66 0 1.32 0 2 0 C2 0.66 2 1.32 2 2 C2.66 2 3.32 2 4 2 C5.55078125 3.609375 5.55078125 3.609375 7.3125 5.75 C9.98362313 8.90170177 12.64182828 11.55769329 16 14 C15.67 14.66 15.34 15.32 15 16 C13.35 16 11.7 16 10 16 C9.67 14.35 9.34 12.7 9 11 C8.01 11 7.02 11 6 11 C5.731875 10.4225 5.46375 9.845 5.1875 9.25 C4.0547579 6.9565905 4.0547579 6.9565905 2.4375 4.9375 C1 3 1 3 0 0 Z " fill="#4BA2EC" transform="translate(412,205)"/>
<path d="M0 0 C1.22268799 3.66806398 0.63313577 4.7446527 -0.65234375 8.32421875 C-1.01650391 9.35224609 -1.38066406 10.38027344 -1.75585938 11.43945312 C-2.14580078 12.51130859 -2.53574219 13.58316406 -2.9375 14.6875 C-3.51661133 16.31268555 -3.51661133 16.31268555 -4.10742188 17.97070312 C-5.0635253 20.65015346 -6.02799857 23.3262844 -7 26 C-8.1700097 22.08263419 -7.69584017 19.02040985 -7 15 C-6.34 15 -5.68 15 -5 15 C-4.855625 13.948125 -4.71125 12.89625 -4.5625 11.8125 C-4.12473034 8.84539451 -3.62195134 5.93205634 -3 3 C-2.34 3 -1.68 3 -1 3 C-0.67 2.01 -0.34 1.02 0 0 Z " fill="#59ADEB" transform="translate(220,338)"/>
<path d="M0 0 C2 2 2 2 2.4375 4.75 C1.83204968 9.24763096 0.14884825 10.77617917 -3 14 C-6.01324195 15.50662097 -8.68286377 15.17770373 -12 15 C-12.66 14.34 -13.32 13.68 -14 13 C-9.545 12.505 -9.545 12.505 -5 12 C-5 11.34 -5 10.68 -5 10 C-4.34 10 -3.68 10 -3 10 C-2.67 8.68 -2.34 7.36 -2 6 C-1.34 6 -0.68 6 0 6 C0 4.02 0 2.04 0 0 Z " fill="#53A6EB" transform="translate(157,336)"/>
<path d="M0 0 C0.33 1.32 0.66 2.64 1 4 C-1.43940632 7.84675612 -4.09176766 9.78181408 -8 12 C-8.33 12.66 -8.66 13.32 -9 14 C-10.32 13.67 -11.64 13.34 -13 13 C-8.71 8.71 -4.42 4.42 0 0 Z " fill="#3B9AED" transform="translate(70,221)"/>
<path d="M0 0 C0.66 0.33 1.32 0.66 2 1 C3.233342 4.80620776 3.73576429 8.49849584 1.9453125 12.15234375 C0.5625 14.0625 0.5625 14.0625 -2 17 C-3 14 -3 14 -2 11 C-1.34 11 -0.68 11 0 11 C-0.33 9.35 -0.66 7.7 -1 6 C-2.98 6.99 -2.98 6.99 -5 8 C-3.62845496 5.04590299 -2.01136276 2.55991624 0 0 Z " fill="#54AAED" transform="translate(233,188)"/>
<path d="M0 0 C2.97 0.495 2.97 0.495 6 1 C6 1.99 6 2.98 6 4 C6.99 3.67 7.98 3.34 9 3 C9.28875 3.804375 9.5775 4.60875 9.875 5.4375 C10.73262568 8.1326468 10.73262568 8.1326468 13 9 C13.625 11.5625 13.625 11.5625 14 14 C12 12.625 12 12.625 10 11 C10 10.34 10 9.68 10 9 C9.34 9 8.68 9 8 9 C8 8.34 8 7.68 8 7 C7.4225 6.773125 6.845 6.54625 6.25 6.3125 C3.4336339 4.66961977 1.91922886 2.60466773 0 0 Z " fill="#419FEE" transform="translate(393,215)"/>
<path d="M0 0 C1.2065625 0.0309375 1.2065625 0.0309375 2.4375 0.0625 C-3.71284169 7.54541572 -3.71284169 7.54541572 -7.5625 10.0625 C-8.375 8.375 -8.375 8.375 -8.5625 6.0625 C-6.1875 3.375 -6.1875 3.375 -3.5625 1.0625 C-2.5625 0.0625 -2.5625 0.0625 0 0 Z " fill="#2C9AF3" transform="translate(366.5625,336.9375)"/>
<path d="M0 0 C3 2.5 3 2.5 5 5 C0 4 0 4 -2.4375 3.375 C-5.53896363 2.92112727 -7.96769185 3.24192296 -11 4 C-11.33 4.66 -11.66 5.32 -12 6 C-12.66 6 -13.32 6 -14 6 C-13.08486681 3.71216703 -12.34515354 2.26550272 -10.375 0.75 C-6.8813713 -0.35325117 -3.5829884 -0.73078773 0 0 Z " fill="#4EA2EC" transform="translate(355,148)"/>
<path d="M0 0 C1.37520651 3.82001808 0.74051523 7.07526927 0 11 C-0.33 11.33 -0.66 11.66 -1 12 C-1.1546875 13.7015625 -1.1546875 13.7015625 -1.3125 15.4375 C-1.539375 16.613125 -1.76625 17.78875 -2 19 C-4.04296875 20.22265625 -4.04296875 20.22265625 -6 21 C-5.37942343 18.43635601 -4.75370801 15.87415074 -4.125 13.3125 C-3.95097656 12.59126953 -3.77695313 11.87003906 -3.59765625 11.12695312 C-2.64902134 7.27971155 -1.59509159 3.64284431 0 0 Z " fill="#50A4EA" transform="translate(253,187)"/>
<path d="M0 0 C0.99 0.66 1.98 1.32 3 2 C2.34 3.32 1.68 4.64 1 6 C-1.64 6 -4.28 6 -7 6 C-7 5.01 -7 4.02 -7 3 C-3.6875 1.375 -3.6875 1.375 0 0 Z " fill="#118CF5" transform="translate(174,288)"/>
<path d="M0 0 C4.27343092 -0.36629408 6.48812804 0.59185923 10 3 C9.67 4.32 9.34 5.64 9 7 C6 7 6 7 4 6 C4 5.01 4 4.02 4 3 C2.68 3 1.36 3 0 3 C0 2.01 0 1.02 0 0 Z " fill="#0989F8" transform="translate(314,279)"/>
<path d="M0 0 C4.75 0.75 4.75 0.75 7 3 C9.06874034 3.6425235 9.06874034 3.6425235 11 4 C11 4.99 11 5.98 11 7 C7.18115446 7.21821974 4.34157247 6.94925061 1 5 C0.1875 2.375 0.1875 2.375 0 0 Z " fill="#0789F7" transform="translate(324,286)"/>
<path d="M0 0 C0.625 1.8125 0.625 1.8125 1 4 C0.01 5.485 0.01 5.485 -1 7 C-1.0825 7.804375 -1.165 8.60875 -1.25 9.4375 C-2.34608356 13.18245218 -4.72387194 14.11796899 -8 16 C-8.66 15.67 -9.32 15.34 -10 15 C-9.36191406 14.08476562 -8.72382813 13.16953125 -8.06640625 12.2265625 C-7.23170226 11.02608934 -6.3970706 9.8255659 -5.5625 8.625 C-5.14162109 8.02171875 -4.72074219 7.4184375 -4.28710938 6.796875 C-1.9779257 3.49925179 -1.9779257 3.49925179 0 0 Z " fill="#48A0EA" transform="translate(195,260)"/>
<path d="M0 0 C1.11435288 2.80276633 1.00643141 3.97978311 0.07421875 6.91015625 C-0.61220703 8.47056641 -0.61220703 8.47056641 -1.3125 10.0625 C-1.76238281 11.10535156 -2.21226562 12.14820313 -2.67578125 13.22265625 C-4 16 -4 16 -6 19 C-5.76049493 17.35767949 -5.51979984 15.71552461 -5.2734375 14.07421875 C-5.09042283 12.68592176 -4.95004109 11.29137228 -4.8515625 9.89453125 C-4.56813091 6.29764935 -4.26463559 4.32077042 -1.9375 1.5 C-1.298125 1.005 -0.65875 0.51 0 0 Z " fill="#4BA2EB" transform="translate(255,240)"/>
<path d="M0 0 C1.33332095 2.6666419 0.67102033 4.16680303 0 7 C-1.32 7 -2.64 7 -4 7 C-4.33 7.99 -4.66 8.98 -5 10 C-8.0625 11.1875 -8.0625 11.1875 -11 12 C-8.01665146 6.98797445 -4.56048012 3.61251516 0 0 Z " fill="#3293EB" transform="translate(141,150)"/>
<path d="M0 0 C0 0.66 0 1.32 0 2 C0.66 2 1.32 2 2 2 C2.625 3.8125 2.625 3.8125 3 6 C2.01 7.485 2.01 7.485 1 9 C-1.31 6.69 -3.62 4.38 -6 2 C-2 0 -2 0 0 0 Z " fill="#349AF2" transform="translate(94,293)"/>
<path d="M0 0 C0.66 0 1.32 0 2 0 C2 0.66 2 1.32 2 2 C2.99 2.33 3.98 2.66 5 3 C5 3.66 5 4.32 5 5 C5.66 5 6.32 5 7 5 C7 5.66 7 6.32 7 7 C7.66 7 8.32 7 9 7 C9 7.66 9 8.32 9 9 C9.66 9 10.32 9 11 9 C11.33 9.99 11.66 10.98 12 12 C11.34 12 10.68 12 10 12 C10 11.34 10 10.68 10 10 C7.69 9.67 5.38 9.34 3 9 C3 7.02 3 5.04 3 3 C2.01 3.33 1.02 3.66 0 4 C0 2.68 0 1.36 0 0 Z " fill="#61B0F2" transform="translate(366,159)"/>
<path d="M0 0 C1.15224028 0.92961422 2.29659176 1.8690125 3.4375 2.8125 C4.07558594 3.33457031 4.71367187 3.85664063 5.37109375 4.39453125 C7 6 7 6 8 9 C8.66 9 9.32 9 10 9 C10 9.66 10 10.32 10 11 C10.66 11 11.32 11 12 11 C12 11.66 12 12.32 12 13 C10.68 12.67 9.36 12.34 8 12 C7.67 10.68 7.34 9.36 7 8 C5.35 7.67 3.7 7.34 2 7 C2.33 6.01 2.66 5.02 3 4 C2.01 4 1.02 4 0 4 C0 2.68 0 1.36 0 0 Z " fill="#61B1ED" transform="translate(145,323)"/>
<path d="M0 0 C3 1 3 1 4 3 C4.99 3.33 5.98 3.66 7 4 C7 3.34 7 2.68 7 2 C7.66 2 8.32 2 9 2 C9 3.32 9 4.64 9 6 C8.34 6 7.68 6 7 6 C7 6.66 7 7.32 7 8 C7.66 8 8.32 8 9 8 C8.67 8.99 8.34 9.98 8 11 C6.84501103 9.92643323 5.70132133 8.84070212 4.5625 7.75 C3.92441406 7.14671875 3.28632812 6.5434375 2.62890625 5.921875 C0.91483694 3.89951984 0.40641122 2.58729395 0 0 Z " fill="#409FED" transform="translate(51,255)"/>
<path d="M0 0 C2 1 2 1 3.1875 4.0625 C4.56462439 9.38519508 3.97981631 14.04036738 1.5 19 C1.005 19.66 0.51 20.32 0 21 C-0.33 21 -0.66 21 -1 21 C-1 19.35 -1 17.7 -1 16 C-0.34 15.67 0.32 15.34 1 15 C1.09038099 9.84828377 0.84681133 5.08086796 0 0 Z " fill="#68B5EA" transform="translate(446,239)"/>
<path d="M0 0 C1.98 0 3.96 0 6 0 C6 1.65 6 3.3 6 5 C6.66 5 7.32 5 8 5 C8 5.66 8 6.32 8 7 C9.32 7.33 10.64 7.66 12 8 C12.33 9.65 12.66 11.3 13 13 C11 11.625 11 11.625 9 10 C9 9.34 9 8.68 9 8 C8.34 8 7.68 8 7 8 C7 7.34 7 6.68 7 6 C6.401875 5.7525 5.80375 5.505 5.1875 5.25 C2.71352479 3.83629988 1.56629745 2.34944617 0 0 Z " fill="#68B5EC" transform="translate(407,229)"/>
<path d="M0 0 C1.32511184 4.45075734 1.10483875 8.50643941 0 13 C-2.0625 15.5625 -2.0625 15.5625 -4 17 C-5 15 -5 15 -4.00390625 11.5234375 C-3.53099953 10.13802064 -3.05018356 8.75528453 -2.5625 7.375 C-2.31951172 6.66859375 -2.07652344 5.9621875 -1.82617188 5.234375 C-1.22412795 3.48726713 -0.61291983 1.74332214 0 0 Z " fill="#53A4E9" transform="translate(269,140)"/>
<path d="M0 0 C0.33 0 0.66 0 1 0 C1.02712066 1.43739513 1.04645067 2.87493863 1.0625 4.3125 C1.07410156 5.11300781 1.08570313 5.91351563 1.09765625 6.73828125 C1 9 1 9 0 12 C-0.99 12.495 -0.99 12.495 -2 13 C-2.65555119 15.52733235 -2.65555119 15.52733235 -3 18 C-3.66 18 -4.32 18 -5 18 C-3.75971762 11.82777121 -2.10396411 5.93317878 0 0 Z " fill="#4CA5EE" transform="translate(220,287)"/>
<path d="M0 0 C2.5 1.375 2.5 1.375 5 3 C5 3.66 5 4.32 5 5 C5.70125 5.268125 6.4025 5.53625 7.125 5.8125 C10.1649824 7.0681449 13.0727774 8.50235123 16 10 C13.21176345 11.0326802 12.1322726 11.04509293 9.25 10.0625 C8.5075 9.711875 7.765 9.36125 7 9 C7 8.34 7 7.68 7 7 C6.01 7 5.02 7 4 7 C4 6.01 4 5.02 4 4 C2.68 4 1.36 4 0 4 C0 2.68 0 1.36 0 0 Z " fill="#60AEED" transform="translate(320,278)"/>
<path d="M0 0 C0.66 0 1.32 0 2 0 C2 0.66 2 1.32 2 2 C2.66 2 3.32 2 4 2 C4 2.66 4 3.32 4 4 C4.99 4.33 5.98 4.66 7 5 C7 5.66 7 6.32 7 7 C7.66 7 8.32 7 9 7 C8.67 7.66 8.34 8.32 8 9 C5.9375 9.625 5.9375 9.625 4 10 C2 7 2 7 2 3 C1.34 3 0.68 3 0 3 C0 2.01 0 1.02 0 0 Z " fill="#53AAF1" transform="translate(403,196)"/>
<path d="M0 0 C0.33 0 0.66 0 1 0 C0.01176471 8.4 0.01176471 8.4 -2 12 C-4.125 12.8125 -4.125 12.8125 -6 13 C-4.58707905 8.1725201 -2.57025846 4.2837641 0 0 Z " fill="#4CA8ED" transform="translate(202,247)"/>
<path d="M0 0 C1.76647063 2.64970595 2.97014997 5.01498099 4.1875 7.9375 C4.55230469 8.79214844 4.91710937 9.64679688 5.29296875 10.52734375 C6.05225403 13.18274477 5.93187432 14.44179725 5 17 C4.34 16.67 3.68 16.34 3 16 C2.29508733 13.67793475 1.62787571 11.34406932 1 9 C0.67 8.67 0.34 8.34 0 8 C-0.14115161 5.32941149 -0.04247107 2.67567762 0 0 Z " fill="#4FA5EC" transform="translate(291,225)"/>
<path d="M0 0 C0.33 0 0.66 0 1 0 C1 2.97 1 5.94 1 9 C0.34 9 -0.32 9 -1 9 C-1 10.32 -1 11.64 -1 13 C-1.66 13 -2.32 13 -3 13 C-3 14.32 -3 15.64 -3 17 C-3.66 17 -4.32 17 -5 17 C-4.54619105 15.10307857 -4.08675008 13.20750405 -3.625 11.3125 C-3.36976563 10.25675781 -3.11453125 9.20101562 -2.8515625 8.11328125 C-2.08094511 5.29593234 -1.14501457 2.68331675 0 0 Z " fill="#4EA3E9" transform="translate(246,209)"/>
<path d="M0 0 C0.66 1.32 1.32 2.64 2 4 C-1.222107 7.8665284 -4.14922412 8.88059018 -9 10 C-8.06409496 8.8944811 -7.12620142 7.79064547 -6.1875 6.6875 C-5.66542969 6.07261719 -5.14335938 5.45773438 -4.60546875 4.82421875 C-3.12827531 3.14575321 -1.59960869 1.56117966 0 0 Z " fill="#3897ED" transform="translate(117,174)"/>
<path d="M0 0 C0.33 0 0.66 0 1 0 C1 2.64 1 5.28 1 8 C0.01 8.495 0.01 8.495 -1 9 C-1.4640625 10.7325 -1.4640625 10.7325 -1.9375 12.5 C-2.4634375 14.2325 -2.4634375 14.2325 -3 16 C-3.99 16.33 -4.98 16.66 -6 17 C-4.13236819 11.27789404 -2.14710968 5.62338249 0 0 Z " fill="#54ACED" transform="translate(212,222)"/>
<path d="M0 0 C0.66 0 1.32 0 2 0 C1.36843005 5.05255964 -0.13459373 9.29593201 -2 14 C-2.33 14 -2.66 14 -3 14 C-3.33 10.7 -3.66 7.4 -4 4 C-3.34 4 -2.68 4 -2 4 C-1.34 2.68 -0.68 1.36 0 0 Z " fill="#49A5EC" transform="translate(262,218)"/>
<path d="M0 0 C4.29 0.33 8.58 0.66 13 1 C13 1.33 13 1.66 13 2 C10.03 2 7.06 2 4 2 C4 2.66 4 3.32 4 4 C4.99 4.33 5.98 4.66 7 5 C5.1875 5.6875 5.1875 5.6875 3 6 C1.25 4.75 1.25 4.75 0 3 C0 2.01 0 1.02 0 0 Z " fill="#1087EF" transform="translate(336,291)"/>
<path d="M0 0 C0.33 0 0.66 0 1 0 C0.67 3.96 0.34 7.92 0 12 C-0.66 12 -1.32 12 -2 12 C-2 13.32 -2 14.64 -2 16 C-2.99 16.33 -3.98 16.66 -5 17 C-1.92482916 5.47835991 -1.92482916 5.47835991 0 0 Z " fill="#5CADED" transform="translate(203,338)"/>
<path d="M0 0 C2 1 2 1 3 3 C6.02934491 3.65772428 6.02934491 3.65772428 9 4 C6.77810176 6.22189824 4.91517292 6.92598892 2 8 C1.34 7.01 0.68 6.02 0 5 C-2.05003955 3.80767387 -2.05003955 3.80767387 -4 3 C-2.68 2.01 -1.36 1.02 0 0 Z " fill="#50ACF1" transform="translate(242,181)"/>
<path d="M0 0 C2.75 0.125 2.75 0.125 6 1 C8.4375 3.875 8.4375 3.875 10 7 C9.67 7.99 9.34 8.98 9 10 C7.49702124 8.52386015 5.99768715 7.04400843 4.5 5.5625 C3.6646875 4.73878906 2.829375 3.91507813 1.96875 3.06640625 C0 1 0 1 0 0 Z " fill="#58ADED" transform="translate(347,170)"/>
<path d="M0 0 C2.76276177 0.52268466 5.3260876 1.10869587 8 2 C8.99 2 9.98 2 11 2 C11 2.66 11 3.32 11 4 C10.34 4 9.68 4 9 4 C9.33 4.99 9.66 5.98 10 7 C6.65750371 6.40312566 4.53563658 5.26396123 2 3 C2 2.34 2 1.68 2 1 C1.34 0.67 0.68 0.34 0 0 Z " fill="#3D9CED" transform="translate(119,326)"/>
<path d="M0 0 C2.875 0.25 2.875 0.25 6 1 C7.25 3 7.25 3 8 5 C8.66 5.33 9.32 5.66 10 6 C9.67 7.32 9.34 8.64 9 10 C7.49702124 8.52386015 5.99768715 7.04400843 4.5 5.5625 C3.6646875 4.73878906 2.829375 3.91507813 1.96875 3.06640625 C0 1 0 1 0 0 Z " fill="#449EEB" transform="translate(381,203)"/>
<path d="M0 0 C0.99 0.66 1.98 1.32 3 2 C3.50427005 6.43757643 2.57554134 9.86420399 1 14 C0.67 14 0.34 14 0 14 C0 11.03 0 8.06 0 5 C-0.66 5 -1.32 5 -2 5 C-1 2 -1 2 0 0 Z " fill="#5EAFF1" transform="translate(296,121)"/>
<path d="M0 0 C1.98 0.99 1.98 0.99 4 2 C4 3.32 4 4.64 4 6 C4.639375 6.226875 5.27875 6.45375 5.9375 6.6875 C8 8 8 8 8.75 10.625 C8.87375 11.800625 8.87375 11.800625 9 13 C8.34 13 7.68 13 7 13 C5.71372091 11.07058137 4.51888653 9.07960033 3.375 7.0625 C2.74335938 5.96035156 2.11171875 4.85820312 1.4609375 3.72265625 C0 1 0 1 0 0 Z " fill="#5DABEC" transform="translate(297,260)"/>
<path d="M0 0 C1.32 0.33 2.64 0.66 4 1 C3.57405412 2.44096586 3.13373367 3.87768712 2.6875 5.3125 C2.44386719 6.11300781 2.20023438 6.91351563 1.94921875 7.73828125 C0.95817977 10.09964573 -0.08074943 11.33879993 -2 13 C-2 11.68 -2 10.36 -2 9 C-1.34 9 -0.68 9 0 9 C0 6.03 0 3.06 0 0 Z " fill="#55A8EE" transform="translate(203,253)"/>
<path d="M0 0 C2.05078125 0.03255208 4.1015625 0.06510417 6.15234375 0.09765625 C5.82234375 1.41765625 5.49234375 2.73765625 5.15234375 4.09765625 C2.27734375 4.28515625 2.27734375 4.28515625 -0.84765625 4.09765625 C-1.50765625 3.10765625 -2.16765625 2.11765625 -2.84765625 1.09765625 C-1.84765625 0.09765625 -1.84765625 0.09765625 0 0 Z " fill="#0A88F3" transform="translate(245.84765625,180.90234375)"/>
<path d="M0 0 C0.598125 0.226875 1.19625 0.45375 1.8125 0.6875 C1.8125 1.3475 1.8125 2.0075 1.8125 2.6875 C0.28125 3.9765625 0.28125 3.9765625 -1.6875 5.3125 C-2.3371875 5.75851562 -2.986875 6.20453125 -3.65625 6.6640625 C-4.1615625 7.00179688 -4.666875 7.33953125 -5.1875 7.6875 C-5.41803497 4.84423536 -5.54653101 3.22604651 -3.9375 0.8125 C-2.1875 -0.3125 -2.1875 -0.3125 0 0 Z " fill="#3799ED" transform="translate(417.1875,285.3125)"/>
<path d="M0 0 C0.96661363 3.12180401 0.98988909 5.52083795 0.5625 8.75 C0.46066406 9.54921875 0.35882813 10.3484375 0.25390625 11.171875 C0.12822266 12.07679688 0.12822266 12.07679688 0 13 C-1.32 13.33 -2.64 13.66 -4 14 C-3.52372025 12.04096255 -3.04388577 10.08278903 -2.5625 8.125 C-2.29566406 7.03445312 -2.02882812 5.94390625 -1.75390625 4.8203125 C-1 2 -1 2 0 0 Z " fill="#51A4EA" transform="translate(236,239)"/>
<path d="M0 0 C1.32 0 2.64 0 4 0 C4 0.99 4 1.98 4 3 C3.34 3 2.68 3 2 3 C1.34 4.32 0.68 5.64 0 7 C-0.66 7 -1.32 7 -2 7 C-2.125 4.625 -2.125 4.625 -2 2 C-1.34 1.34 -0.68 0.68 0 0 Z " fill="#1187F0" transform="translate(205,243)"/>
<path d="M0 0 C1.423125 0.2784375 1.423125 0.2784375 2.875 0.5625 C5.89868793 1.28686632 5.89868793 1.28686632 8 0 C8 2.64 8 5.28 8 8 C6.85073734 7.04578192 5.70569459 6.08647955 4.5625 5.125 C3.92441406 4.59132813 3.28632812 4.05765625 2.62890625 3.5078125 C1 2 1 2 0 0 Z " fill="#48A1EB" transform="translate(96,302)"/>
<path d="M0 0 C0.33 0 0.66 0 1 0 C1 3.3 1 6.6 1 10 C-0.98 10.99 -0.98 10.99 -3 12 C-2.01 8.04 -1.02 4.08 0 0 Z " fill="#469FEA" transform="translate(224,275)"/>
<path d="M0 0 C0.33 0.99 0.66 1.98 1 3 C-0.40445835 5.2636564 -2.1967913 7.0208685 -4 9 C-5.32 8.67 -6.64 8.34 -8 8 C-5.36 5.36 -2.72 2.72 0 0 Z " fill="#49A2E9" transform="translate(93,198)"/>
<path d="M0 0 C0.66 0 1.32 0 2 0 C2.33 1.65 2.66 3.3 3 5 C0.36 4.67 -2.28 4.34 -5 4 C-5.33 3.01 -5.66 2.02 -6 1 C-3.03 1.495 -3.03 1.495 0 2 C0 1.34 0 0.68 0 0 Z " fill="#2A93EF" transform="translate(146,345)"/>
<path d="M0 0 C0.66 0 1.32 0 2 0 C1.71640113 1.4391134 1.42278601 2.87625518 1.125 4.3125 C0.88136719 5.51326172 0.88136719 5.51326172 0.6328125 6.73828125 C0 9 0 9 -2 12 C-3.6442351 7.06729471 -2.18615592 4.45975807 0 0 Z " fill="#54A6EA" transform="translate(206,315)"/>
<path d="M0 0 C0.33 0.99 0.66 1.98 1 3 C0.01 3.33 -0.98 3.66 -2 4 C-2 4.99 -2 5.98 -2 7 C-2.66 7 -3.32 7 -4 7 C-4 7.66 -4 8.32 -4 9 C-5.32 8.67 -6.64 8.34 -8 8 C-5.36 5.36 -2.72 2.72 0 0 Z " fill="#5DADEC" transform="translate(411,265)"/>
<path d="M0 0 C3.42931954 3.7559214 4.56429083 8.23466745 6 13 C5.34 13 4.68 13 4 13 C3.67 11.68 3.34 10.36 3 9 C2.34 9 1.68 9 1 9 C0.67 6.03 0.34 3.06 0 0 Z " fill="#54A9ED" transform="translate(285,211)"/>
<path d="M0 0 C0.66 0.33 1.32 0.66 2 1 C2.375 8.5 2.375 8.5 -1 13 C-0.67 8.71 -0.34 4.42 0 0 Z " fill="#55A4E6" transform="translate(157,153)"/>
<path d="M0 0 C1.25955231 3.77865693 0.48087189 5.03411786 -0.9375 8.6875 C-1.31777344 9.68136719 -1.69804687 10.67523438 -2.08984375 11.69921875 C-2.39019531 12.45847656 -2.69054687 13.21773438 -3 14 C-3.33 14 -3.66 14 -4 14 C-3.66009167 8.62007164 -3.31442207 4.46726453 0 0 Z " fill="#51A7EA" transform="translate(244,270)"/>
<path d="M0 0 C6.52307692 1.47692308 6.52307692 1.47692308 8.9375 4.125 C9.288125 4.74375 9.63875 5.3625 10 6 C9.16855469 5.7834375 9.16855469 5.7834375 8.3203125 5.5625 C7.59585938 5.376875 6.87140625 5.19125 6.125 5 C5.40570313 4.814375 4.68640625 4.62875 3.9453125 4.4375 C2.00710683 3.92686035 2.00710683 3.92686035 0 4 C0 2.68 0 1.36 0 0 Z " fill="#3FA0F3" transform="translate(81,262)"/>
<path d="M0 0 C0.33 0 0.66 0 1 0 C1 1.65 1 3.3 1 5 C0.360625 5.103125 -0.27875 5.20625 -0.9375 5.3125 C-1.618125 5.539375 -2.29875 5.76625 -3 6 C-3.33 6.99 -3.66 7.98 -4 9 C-4.33 8.01 -4.66 7.02 -5 6 C-2.625 2.8125 -2.625 2.8125 0 0 Z " fill="#429CED" transform="translate(56,235)"/>
<path d="M0 0 C0.33 0.99 0.66 1.98 1 3 C0.67 3.66 0.34 4.32 0 5 C-0.99 5.33 -1.98 5.66 -3 6 C-3.33 6.99 -3.66 7.98 -4 9 C-5.32 8.67 -6.64 8.34 -8 8 C-5.36 5.36 -2.72 2.72 0 0 Z " fill="#52A3EB" transform="translate(84,207)"/>
<path d="M0 0 C3.3125 -0.3125 3.3125 -0.3125 7 0 C8.9375 2.5 8.9375 2.5 10 5 C9.34 5.66 8.68 6.32 8 7 C7.67 5.68 7.34 4.36 7 3 C4.69 2.67 2.38 2.34 0 2 C0 1.34 0 0.68 0 0 Z " fill="#60B0EE" transform="translate(349,292)"/>
<path d="M0 0 C1.32 0.99 2.64 1.98 4 3 C3.67 4.32 3.34 5.64 3 7 C2.34 7 1.68 7 1 7 C0.67 4.69 0.34 2.38 0 0 Z M-3 6 C-1.68 6.66 -0.36 7.32 1 8 C0.01 8.495 0.01 8.495 -1 9 C-1.33 9.66 -1.66 10.32 -2 11 C-2.66 9.68 -3.32 8.36 -4 7 C-3.67 6.67 -3.34 6.34 -3 6 Z " fill="#60B3F3" transform="translate(310,267)"/>
<path d="M0 0 C1.39195915 4.17587745 -0.17676781 6.13474776 -2 10 C-2.66 10 -3.32 10 -4 10 C-3.67 7.69 -3.34 5.38 -3 3 C-2.34 3 -1.68 3 -1 3 C-0.67 2.01 -0.34 1.02 0 0 Z " fill="#469FEA" transform="translate(220,338)"/>
<path d="M0 0 C1.25955231 3.77865693 0.48087189 5.03411786 -0.9375 8.6875 C-1.31777344 9.68136719 -1.69804687 10.67523438 -2.08984375 11.69921875 C-2.39019531 12.45847656 -2.69054687 13.21773438 -3 14 C-3.33 14 -3.66 14 -4 14 C-3.6732039 11.66574212 -3.33859959 9.33257494 -3 7 C-2.855625 5.88625 -2.71125 4.7725 -2.5625 3.625 C-2.376875 2.75875 -2.19125 1.8925 -2 1 C-1.34 0.67 -0.68 0.34 0 0 Z " fill="#5AABEC" transform="translate(229,313)"/>
<path d="M0 0 C0.33 0 0.66 0 1 0 C1 2.97 1 5.94 1 9 C-0.98 9.99 -0.98 9.99 -3 11 C-1.125 3.375 -1.125 3.375 0 0 Z " fill="#5BADF0" transform="translate(214,305)"/>
<path d="M0 0 C0.33 1.32 0.66 2.64 1 4 C-1.8125 6.0625 -1.8125 6.0625 -5 8 C-5.99 7.67 -6.98 7.34 -8 7 C-7.34 7 -6.68 7 -6 7 C-6 6.34 -6 5.68 -6 5 C-4.04072937 3.2856382 -2.04119788 1.61594832 0 0 Z " fill="#50A7ED" transform="translate(184,276)"/>
<path d="M0 0 C0.66 0.33 1.32 0.66 2 1 C2 2.65 2 4.3 2 6 C0.35 6.33 -1.3 6.66 -3 7 C-3.33 6.01 -3.66 5.02 -4 4 C-2.68 3.34 -1.36 2.68 0 2 C0 1.34 0 0.68 0 0 Z " fill="#1389EE" transform="translate(312,271)"/>
<path d="M0 0 C1.485 0.99 1.485 0.99 3 2 C3 3.32 3 4.64 3 6 C3.66 6 4.32 6 5 6 C5 7.98 5 9.96 5 12 C1.94063363 8.24532309 0 4.91886939 0 0 Z " fill="#69B1EC" transform="translate(292,248)"/>
<path d="M0 0 C1.67542976 0.28604898 3.34385343 0.61781233 5 1 C3.35830472 3.02054804 1.69088222 5.02043058 0 7 C-0.33 7 -0.66 7 -1 7 C-1.04254356 5.00045254 -1.04080783 2.99958364 -1 1 C-0.67 0.67 -0.34 0.34 0 0 Z " fill="#52ABEE" transform="translate(146,170)"/>
<path d="M0 0 C1.98 0 3.96 0 6 0 C3.11912454 2.40072955 0.43595166 4.47291037 -3 6 C-3 5.01 -3 4.02 -3 3 C-2.01 3 -1.02 3 0 3 C0 2.01 0 1.02 0 0 Z " fill="#6AB4ED" transform="translate(179,287)"/>
<path d="M0 0 C0.33 0 0.66 0 1 0 C1.36923077 7.50769231 1.36923077 7.50769231 -0.5 10 C-0.995 10.33 -1.49 10.66 -2 11 C-3 9 -3 9 -2.44140625 6.8359375 C-2.15136719 6.02382812 -1.86132812 5.21171875 -1.5625 4.375 C-1.27503906 3.55773437 -0.98757812 2.74046875 -0.69140625 1.8984375 C-0.46324219 1.27195313 -0.23507813 0.64546875 0 0 Z " fill="#72B2EC" transform="translate(240,226)"/>
<path d="M0 0 C0.66 0 1.32 0 2 0 C1.44894091 3.9492568 0.61064629 7.34920174 -1 11 C-1.66 9.68 -2.32 8.36 -3 7 C-2.34 7 -1.68 7 -1 7 C-0.67 4.69 -0.34 2.38 0 0 Z " fill="#54A5EA" transform="translate(280,172)"/>
<path d="M0 0 C0.33 0 0.66 0 1 0 C1.53190541 1.43344 2.05015258 2.87195367 2.5625 4.3125 C2.85253906 5.11300781 3.14257812 5.91351563 3.44140625 6.73828125 C4 9 4 9 3 12 C-0.53846154 6.46153846 -0.53846154 6.46153846 -1 3 C-0.67 2.01 -0.34 1.02 0 0 Z " fill="#66B2EC" transform="translate(340,155)"/>
<path d="M0 0 C1.2065625 0.0309375 1.2065625 0.0309375 2.4375 0.0625 C0.79580472 2.08304804 -0.87161778 4.08293058 -2.5625 6.0625 C-2.8925 6.0625 -3.2225 6.0625 -3.5625 6.0625 C-3.605221 4.39638095 -3.60313832 2.72867115 -3.5625 1.0625 C-2.5625 0.0625 -2.5625 0.0625 0 0 Z " fill="#5AB2ED" transform="translate(366.5625,336.9375)"/>
<path d="M0 0 C2.0625 0.4375 2.0625 0.4375 4 1 C3.01 1.495 3.01 1.495 2 2 C2 3.32 2 4.64 2 6 C0.68 5.67 -0.64 5.34 -2 5 C-1.125 1.125 -1.125 1.125 0 0 Z " fill="#2D97F0" transform="translate(323,285)"/>
<path d="M0 0 C2.50298434 2.93828597 3.46930939 5.17902761 4 9 C3.01 9.495 3.01 9.495 2 10 C2 8.68 2 7.36 2 6 C1.34 6 0.68 6 0 6 C0 4.02 0 2.04 0 0 Z " fill="#5BADF1" transform="translate(299,246)"/>
<path d="M0 0 C2.96175123 0.61277612 4.38058783 1.25372522 7 3 C6.67 3.66 6.34 4.32 6 5 C4.35 5 2.7 5 1 5 C0.67 3.35 0.34 1.7 0 0 Z " fill="#3396EB" transform="translate(421,216)"/>
<path d="M0 0 C2.99693138 0.99897713 4.02709413 1.65130253 6 4 C6 4.66 6 5.32 6 6 C3.03 5.505 3.03 5.505 0 5 C0 3.35 0 1.7 0 0 Z " fill="#51A5ED" transform="translate(397,190)"/>
<path d="M0 0 C0.33 0 0.66 0 1 0 C1 1.98 1 3.96 1 6 C-1.91482778 6.80967438 -3.46113217 7.21845993 -6.3125 6.0625 C-6.869375 5.711875 -7.42625 5.36125 -8 5 C-5.69 5 -3.38 5 -1 5 C-0.67 3.35 -0.34 1.7 0 0 Z " fill="#59ACEF" transform="translate(258,173)"/>
<path d="M0 0 C0.99 0.33 1.98 0.66 3 1 C2.67 2.65 2.34 4.3 2 6 C1.01 6 0.02 6 -1 6 C-1.042721 4.33388095 -1.04063832 2.66617115 -1 1 C-0.67 0.67 -0.34 0.34 0 0 Z " fill="#3195EF" transform="translate(189,276)"/>
<path d="M0 0 C0.33 0.99 0.66 1.98 1 3 C-0.4375 5.1875 -0.4375 5.1875 -2 7 C-3.32 6.67 -4.64 6.34 -6 6 C-4.02 4.02 -2.04 2.04 0 0 Z " fill="#4CA1E9" transform="translate(63,228)"/>
<path d="M0 0 C0.99 0.33 1.98 0.66 3 1 C3 1.99 3 2.98 3 4 C3.66 4.33 4.32 4.66 5 5 C4.67 6.32 4.34 7.64 4 9 C3.34 7.35 2.68 5.7 2 4 C1.34 4 0.68 4 0 4 C0 2.68 0 1.36 0 0 Z " fill="#5EB4EE" transform="translate(270,198)"/>
<path d="M0 0 C0.66 0 1.32 0 2 0 C2 0.66 2 1.32 2 2 C2.66 2 3.32 2 4 2 C5.38938077 3.96147874 6.7260411 5.96166576 8 8 C6.35 7.67 4.7 7.34 3 7 C3 5.68 3 4.36 3 3 C2.34 3 1.68 3 1 3 C0.67 2.01 0.34 1.02 0 0 Z " fill="#61AEEB" transform="translate(378,171)"/>
<path d="M0 0 C0.33 1.32 0.66 2.64 1 4 C-1.375 5.5625 -1.375 5.5625 -4 7 C-4.66 6.67 -5.32 6.34 -6 6 C-2.25 1.125 -2.25 1.125 0 0 Z " fill="#52A3EB" transform="translate(136,155)"/>
<path d="M0 0 C0.66 0.33 1.32 0.66 2 1 C1.01 3.97 0.02 6.94 -1 10 C-1.33 10 -1.66 10 -2 10 C-2 7.36 -2 4.72 -2 2 C-1.34 2 -0.68 2 0 2 C0 1.34 0 0.68 0 0 Z " fill="#48A2EA" transform="translate(223,328)"/>
<path d="M0 0 C0.33 0.66 0.66 1.32 1 2 C-0.32 3.65 -1.64 5.3 -3 7 C-3.99 6.67 -4.98 6.34 -6 6 C-4 4 -2 2 0 0 Z " fill="#58A7EA" transform="translate(358,319)"/>
<path d="M0 0 C0.99 0 1.98 0 3 0 C2.34 1.32 1.68 2.64 1 4 C0.34 4 -0.32 4 -1 4 C-1 4.66 -1 5.32 -1 6 C-1.66 6 -2.32 6 -3 6 C-3 4.68 -3 3.36 -3 2 C-2.34 2 -1.68 2 -1 2 C-0.67 1.34 -0.34 0.68 0 0 Z " fill="#5CADEE" transform="translate(397,305)"/>
<path d="M0 0 C0.33 0.99 0.66 1.98 1 3 C0.34 3 -0.32 3 -1 3 C-1.66 4.65 -2.32 6.3 -3 8 C-3.99 7.67 -4.98 7.34 -6 7 C-4.71937515 5.2925002 -3.38232443 3.62626404 -2 2 C-1.34 2 -0.68 2 0 2 C0 1.34 0 0.68 0 0 Z " fill="#74B5EF" transform="translate(377,299)"/>
<path d="M0 0 C0.33 0.66 0.66 1.32 1 2 C0.01 3.485 0.01 3.485 -1 5 C-4.125 5.1875 -4.125 5.1875 -7 5 C-2.25 1.125 -2.25 1.125 0 0 Z " fill="#449EE9" transform="translate(175,284)"/>
<path d="M0 0 C0.33 1.32 0.66 2.64 1 4 C0.34 4 -0.32 4 -1 4 C-1.33 4.99 -1.66 5.98 -2 7 C-2.99 6.67 -3.98 6.34 -5 6 C-3.74821404 3.49642808 -2.00018842 1.93566621 0 0 Z " fill="#0B8DFB" transform="translate(226,205)"/>
<path d="M0 0 C0.66 0.33 1.32 0.66 2 1 C2.625 3.5625 2.625 3.5625 3 6 C2.01 6 1.02 6 0 6 C-0.38218767 4.34385343 -0.71395102 2.67542976 -1 1 C-0.67 0.67 -0.34 0.34 0 0 Z " fill="#2E99F0" transform="translate(345,163)"/>
<path d="M0 0 C0.66 0 1.32 0 2 0 C0.99806563 3.79303725 0.18975773 6.71536341 -2 10 C-1.125 2.25 -1.125 2.25 0 0 Z " fill="#5BA9E6" transform="translate(294,135)"/>
<path d="M0 0 C1.32 0 2.64 0 4 0 C4.33 1.65 4.66 3.3 5 5 C3.68 4.67 2.36 4.34 1 4 C0.67 2.68 0.34 1.36 0 0 Z " fill="#0E87EA" transform="translate(343,344)"/>
<path d="M0 0 C0.66 0 1.32 0 2 0 C1.34 2.31 0.68 4.62 0 7 C-1.32 5.68 -2.64 4.36 -4 3 C-3.01 3 -2.02 3 -1 3 C-0.67 2.01 -0.34 1.02 0 0 Z " fill="#2D96F0" transform="translate(119,318)"/>
<path d="M0 0 C0.33 0.99 0.66 1.98 1 3 C-0.3125 4.5 -0.3125 4.5 -2 6 C-2.99 6 -3.98 6 -5 6 C-5 5.34 -5 4.68 -5 4 C-4.34 4 -3.68 4 -3 4 C-3 3.34 -3 2.68 -3 2 C-2.01 1.34 -1.02 0.68 0 0 Z " fill="#61AAED" transform="translate(370,307)"/>
<path d="M0 0 C2.0625 0.4375 2.0625 0.4375 4 1 C1.03 3.475 1.03 3.475 -2 6 C-1.125 1.125 -1.125 1.125 0 0 Z " fill="#48A2EA" transform="translate(429,272)"/>
<path d="M0 0 C0.33 0 0.66 0 1 0 C1 2.64 1 5.28 1 8 C0.01 8.33 -0.98 8.66 -2 9 C-1.34 6.03 -0.68 3.06 0 0 Z " fill="#58A9EA" transform="translate(227,266)"/>
<path d="M0 0 C1.32 1.32 2.64 2.64 4 4 C3.34 5.32 2.68 6.64 2 8 C0.23537317 4.91190305 0 3.76687864 0 0 Z " fill="#3F9FF1" transform="translate(306,261)"/>
<path d="M0 0 C2.97 0.495 2.97 0.495 6 1 C6 2.65 6 4.3 6 6 C3.97945196 4.35830472 1.97956942 2.69088222 0 1 C0 0.67 0 0.34 0 0 Z " fill="#4CA7F0" transform="translate(60,266)"/>
<path d="M0 0 C0.66 0 1.32 0 2 0 C2.33 2.64 2.66 5.28 3 8 C2.01 7.34 1.02 6.68 0 6 C-0.1875 2.875 -0.1875 2.875 0 0 Z " fill="#3295E9" transform="translate(444,237)"/>
<path d="M0 0 C2.78388975 1.70625501 3.85384206 2.47626739 4.75 5.6875 C4.8325 6.450625 4.915 7.21375 5 8 C3 6.625 3 6.625 1 5 C1 4.34 1 3.68 1 3 C0.34 3 -0.32 3 -1 3 C-0.67 2.01 -0.34 1.02 0 0 Z " fill="#5EABEB" transform="translate(402,221)"/>
<path d="M0 0 C2 3 2 3 2 5 C2.99 5.33 3.98 5.66 5 6 C4.34 6.66 3.68 7.32 3 8 C1.35 6.02 -0.3 4.04 -2 2 C-1.34 2 -0.68 2 0 2 C0 1.34 0 0.68 0 0 Z " fill="#439CEB" transform="translate(371,189)"/>
<path d="M0 0 C1.98 0 3.96 0 6 0 C6 0.66 6 1.32 6 2 C4.68 2 3.36 2 2 2 C2 2.66 2 3.32 2 4 C0.68 3.67 -0.64 3.34 -2 3 C-1.34 3 -0.68 3 0 3 C0 2.01 0 1.02 0 0 Z " fill="#0A87F5" transform="translate(238,185)"/>
</svg>
